<svg width="16" height="16" viewBox="0 0 16 16" fill="none" xmlns="http://www.w3.org/2000/svg">
<g clip-path="url(#clip0_528_5470)">
<path d="M14.1156 4.54175C14.4681 4.18937 14.6662 3.7114 14.6662 3.21299C14.6663 2.71458 14.4683 2.23656 14.116 1.88408C13.7636 1.53161 13.2856 1.33356 12.7872 1.3335C12.2888 1.33343 11.8108 1.53137 11.4583 1.88375L2.56096 10.7831C2.40618 10.9374 2.29171 11.1274 2.22763 11.3364L1.34696 14.2378C1.32973 14.2954 1.32843 14.3566 1.3432 14.415C1.35796 14.4733 1.38824 14.5266 1.43083 14.5691C1.47341 14.6116 1.52671 14.6418 1.58507 14.6565C1.64343 14.6711 1.70467 14.6697 1.7623 14.6524L4.6643 13.7724C4.87308 13.7089 5.06308 13.5951 5.21763 13.4411L14.1156 4.54175Z" stroke="#8F8F8F" stroke-width="1.33333" stroke-linecap="round" stroke-linejoin="round"/>
<path d="M10 3.3335L12.6667 6.00016" stroke="#8F8F8F" stroke-width="1.33333" stroke-linecap="round" stroke-linejoin="round"/>
</g>
<defs>
<clipPath id="clip0_528_5470">
<rect width="16" height="16" fill="white"/>
</clipPath>
</defs>
</svg>
