<svg width="30" height="30" viewBox="0 0 30 30" fill="none" xmlns="http://www.w3.org/2000/svg">
<path d="M21.3732 24.1534V4.18201C21.3721 3.81265 21.2249 3.45872 20.9637 3.19754C20.7026 2.93636 20.3486 2.78916 19.9793 2.78809H4.18152C3.81216 2.78916 3.45823 2.93636 3.19705 3.19754C2.93587 3.45872 2.78867 3.81265 2.7876 4.18201V24.6262C2.78944 25.2417 3.03479 25.8316 3.47008 26.2669C3.90536 26.7022 4.49521 26.9475 5.1108 26.9494H24.161" stroke="#212529" stroke-width="1.85856" stroke-linejoin="round"/>
<path d="M24.1614 26.9495C23.422 26.9495 22.7129 26.6557 22.1901 26.1329C21.6673 25.6101 21.3735 24.901 21.3735 24.1616V7.43457H25.5553C25.925 7.43457 26.2795 7.58143 26.5409 7.84284C26.8024 8.10425 26.9492 8.4588 26.9492 8.82849V24.1616C26.9492 24.901 26.6555 25.6101 26.1327 26.1329C25.6099 26.6557 24.9008 26.9495 24.1614 26.9495Z" stroke="#212529" stroke-width="1.85856" stroke-linejoin="round"/>
<path d="M13.9386 7.43457H17.6558M13.9386 11.1517H17.6558M6.50439 14.8688H17.6558M6.50439 18.5859H17.6558M6.50439 22.3031H17.6558" stroke="#212529" stroke-width="1.85856" stroke-linecap="round" stroke-linejoin="round"/>
<path d="M10.2226 12.0806H6.50545C6.25899 12.0806 6.02263 11.9827 5.84835 11.8084C5.67408 11.6341 5.57617 11.3977 5.57617 11.1513V7.43416C5.57617 7.1877 5.67408 6.95134 5.84835 6.77706C6.02263 6.60279 6.25899 6.50488 6.50545 6.50488H10.2226C10.469 6.50488 10.7054 6.60279 10.8797 6.77706C11.0539 6.95134 11.1519 7.1877 11.1519 7.43416V11.1513C11.1519 11.3977 11.0539 11.6341 10.8797 11.8084C10.7054 11.9827 10.469 12.0806 10.2226 12.0806Z" fill="#212529"/>
</svg>
