<svg width="8" height="8" viewBox="0 0 8 8" fill="none" xmlns="http://www.w3.org/2000/svg">
<g clip-path="url(#clip0_520_6103)">
<path d="M3.60151 0.71691C3.61521 0.689242 3.63636 0.665951 3.66259 0.649668C3.68882 0.633384 3.71908 0.624756 3.74995 0.624756C3.78082 0.624756 3.81108 0.633384 3.83731 0.649668C3.86354 0.665951 3.8847 0.689242 3.89839 0.71691L4.62026 2.1791C4.66782 2.27534 4.73802 2.3586 4.82484 2.42174C4.91165 2.48488 5.01249 2.52601 5.1187 2.5416L6.73308 2.77785C6.76367 2.78228 6.79241 2.79518 6.81604 2.8151C6.83968 2.83501 6.85727 2.86114 6.86683 2.89054C6.87639 2.91993 6.87754 2.95141 6.87014 2.98142C6.86273 3.01143 6.84708 3.03877 6.82495 3.06035L5.65745 4.19722C5.58046 4.27225 5.52285 4.36487 5.48959 4.46711C5.45633 4.56934 5.44841 4.67813 5.46652 4.7841L5.74214 6.39035C5.74754 6.42092 5.74424 6.4524 5.73261 6.48119C5.72098 6.50997 5.70149 6.53491 5.67637 6.55316C5.65125 6.57141 5.62151 6.58222 5.59054 6.58438C5.55956 6.58653 5.52861 6.57994 5.5012 6.56535L4.05808 5.8066C3.96299 5.75667 3.8572 5.73058 3.7498 5.73058C3.6424 5.73058 3.5366 5.75667 3.44151 5.8066L1.9987 6.56535C1.97131 6.57985 1.94039 6.58638 1.90947 6.58418C1.87855 6.58198 1.84886 6.57115 1.82379 6.55292C1.79872 6.53468 1.77927 6.50978 1.76766 6.48104C1.75604 6.4523 1.75272 6.42088 1.75808 6.39035L2.03339 4.78441C2.05158 4.67839 2.0437 4.56954 2.01043 4.46724C1.97717 4.36494 1.91952 4.27227 1.84245 4.19722L0.674952 3.06066C0.652638 3.03911 0.636825 3.01172 0.629315 2.98162C0.621806 2.95152 0.622901 2.91992 0.632477 2.89041C0.642052 2.8609 0.659723 2.83467 0.683476 2.81472C0.707229 2.79476 0.736109 2.78188 0.766827 2.77754L2.38089 2.5416C2.48722 2.52613 2.5882 2.48505 2.67513 2.42191C2.76207 2.35876 2.83236 2.27543 2.87995 2.1791L3.60151 0.71691Z" fill="white" stroke="white" stroke-width="0.625" stroke-linecap="round" stroke-linejoin="round"/>
</g>
<defs>
<clipPath id="clip0_520_6103">
<rect width="7.5" height="7.5" fill="white"/>
</clipPath>
</defs>
</svg>
