<svg width="283" height="386" viewBox="0 0 283 386" fill="none" xmlns="http://www.w3.org/2000/svg">
<line x1="0.257065" y1="34.8417" x2="0.25708" y2="385" stroke="white" stroke-width="0.514129"/>
<line x1="94.2561" y1="34.8417" x2="94.2561" y2="385" stroke="#DEE2E6" stroke-width="0.514129"/>
<line x1="188.255" y1="34.8417" x2="188.255" y2="385" stroke="#DEE2E6" stroke-width="0.514129"/>
<line x1="282.254" y1="34.8417" x2="282.254" y2="385" stroke="white" stroke-width="0.514129"/>
<line x1="282" y1="64.9292" x2="0.00280762" y2="64.9292" stroke="#DEE2E6" stroke-width="0.514129"/>
<line x1="282" y1="128.995" x2="0.00280762" y2="128.995" stroke="#DEE2E6" stroke-width="0.514129"/>
<line x1="282" y1="193.06" x2="0.00280762" y2="193.06" stroke="#DEE2E6" stroke-width="0.514129"/>
<line x1="282" y1="257.126" x2="0.00280762" y2="257.126" stroke="#DEE2E6" stroke-width="0.514129"/>
<line x1="282" y1="321.192" x2="0.00280762" y2="321.192" stroke="#DEE2E6" stroke-width="0.514129"/>
<line x1="282" y1="385.257" x2="0.00280762" y2="385.257" stroke="white" stroke-width="0.514129"/>
<path d="M32.4 11V2.408H33.93L36.81 9.53H36.846L39.732 2.408H41.22V11H40.098V5.942L40.152 4.106H40.116L37.32 11H36.312L33.492 4.094H33.456L33.522 5.942V11H32.4ZM47.5231 11.198C46.2591 11.198 45.1951 10.78 44.3311 9.944C43.4671 9.108 43.0351 8.024 43.0351 6.692C43.0351 5.396 43.4611 4.324 44.3131 3.476C45.1691 2.628 46.2391 2.204 47.5231 2.204C48.7831 2.204 49.8451 2.626 50.7091 3.47C51.5771 4.31 52.0111 5.384 52.0111 6.692C52.0111 7.976 51.5811 9.048 50.7211 9.908C49.8611 10.768 48.7951 11.198 47.5231 11.198ZM47.5231 10.112C48.4591 10.112 49.2391 9.8 49.8631 9.176C50.4911 8.552 50.8051 7.724 50.8051 6.692C50.8051 5.676 50.4871 4.856 49.8511 4.232C49.2151 3.608 48.4391 3.296 47.5231 3.296C46.5951 3.296 45.8151 3.602 45.1831 4.214C44.5551 4.826 44.2411 5.652 44.2411 6.692C44.2411 7.728 44.5571 8.558 45.1891 9.182C45.8251 9.802 46.6031 10.112 47.5231 10.112ZM53.8336 11V2.408H55.0936L59.5036 9.08H59.5396L59.4736 7.652V2.408H60.6016V11H59.5276L54.9496 4.16H54.9136L54.9616 5.54V11H53.8336Z" fill="#616972"/>
<path d="M46.6926 33.113V23.633L44.6526 25.113L43.9086 24.025L47.1966 21.657H48.1166V33.113H46.6926Z" fill="#616972"/>
<path d="M129.447 11V2.888H130.605V11H129.447ZM126.843 3.482V2.408H133.209V3.482H126.843ZM137.862 11.192C136.834 11.192 136.026 10.892 135.438 10.292C134.854 9.692 134.562 8.864 134.562 7.808V2.408H135.726V7.838C135.726 8.562 135.912 9.122 136.284 9.518C136.656 9.91 137.184 10.106 137.868 10.106C138.556 10.106 139.086 9.914 139.458 9.53C139.83 9.142 140.016 8.578 140.016 7.838V2.408H141.162V7.808C141.162 8.88 140.86 9.712 140.256 10.304C139.652 10.896 138.854 11.192 137.862 11.192ZM143.285 11V2.408H148.457V3.482H144.449V9.92H148.583V11H143.285ZM143.981 7.13V6.056H147.875V7.13H143.981ZM153.013 11.198C152.485 11.198 152.017 11.124 151.609 10.976C151.201 10.828 150.859 10.612 150.583 10.328C150.311 10.044 150.109 9.746 149.977 9.434C149.849 9.122 149.785 8.966 149.785 8.966L150.835 8.522C150.835 8.522 150.891 8.65 151.003 8.906C151.119 9.158 151.271 9.382 151.459 9.578C151.647 9.77 151.873 9.914 152.137 10.01C152.405 10.106 152.711 10.154 153.055 10.154C153.607 10.154 154.041 10.02 154.357 9.752C154.673 9.484 154.831 9.138 154.831 8.714C154.831 8.306 154.701 7.982 154.441 7.742C154.185 7.498 153.623 7.252 152.755 7.004C151.783 6.72 151.111 6.382 150.739 5.99C150.367 5.598 150.181 5.108 150.181 4.52C150.181 3.844 150.433 3.29 150.937 2.858C151.441 2.422 152.101 2.204 152.917 2.204C153.365 2.204 153.761 2.264 154.105 2.384C154.449 2.5 154.745 2.672 154.993 2.9C155.241 3.124 155.429 3.36 155.557 3.608C155.689 3.852 155.755 3.974 155.755 3.974L154.723 4.424C154.723 4.424 154.677 4.344 154.585 4.184C154.493 4.024 154.365 3.868 154.201 3.716C154.041 3.564 153.855 3.45 153.643 3.374C153.435 3.294 153.187 3.254 152.899 3.254C152.419 3.254 152.035 3.364 151.747 3.584C151.463 3.804 151.321 4.092 151.321 4.448C151.321 4.8 151.453 5.084 151.717 5.3C151.985 5.516 152.537 5.752 153.373 6.008C154.301 6.276 154.965 6.62 155.365 7.04C155.769 7.456 155.971 7.99 155.971 8.642C155.971 9.398 155.699 10.014 155.155 10.49C154.615 10.962 153.901 11.198 153.013 11.198Z" fill="#616972"/>
<path d="M137.931 33.113V31.737L141.867 27.505C142.39 26.9397 142.776 26.4357 143.027 25.993C143.278 25.5504 143.403 25.1024 143.403 24.649C143.403 24.073 143.224 23.6117 142.867 23.265C142.51 22.9184 142.03 22.745 141.427 22.745C141.091 22.745 140.808 22.793 140.579 22.889C140.35 22.9797 140.136 23.1237 139.939 23.321C139.742 23.5184 139.568 23.7557 139.419 24.033C139.275 24.305 139.203 24.441 139.203 24.441L137.923 23.929C137.923 23.929 138.011 23.7317 138.187 23.337C138.368 22.9424 138.608 22.6064 138.907 22.329C139.206 22.0464 139.558 21.8197 139.963 21.649C140.368 21.4784 140.867 21.393 141.459 21.393C142.456 21.393 143.275 21.6997 143.915 22.313C144.555 22.921 144.875 23.6944 144.875 24.633C144.875 25.2357 144.726 25.833 144.427 26.425C144.128 27.0117 143.648 27.6464 142.987 28.329L139.739 31.721L139.763 31.769H145.019V33.113H137.931Z" fill="#616972"/>
<path d="M223.708 11L221.386 2.408H222.58L224.158 8.582L224.296 9.218H224.332L224.488 8.582L226.36 2.408H227.506L229.336 8.582L229.492 9.212H229.528L229.672 8.582L231.232 2.408H232.408L230.11 11H229L227.122 4.718L226.948 4.052H226.912L226.72 4.718L224.806 11H223.708ZM233.902 11V2.408H239.074V3.482H235.066V9.92H239.2V11H233.902ZM234.598 7.13V6.056H238.492V7.13H234.598ZM241.074 11V2.408H243.918C245.266 2.408 246.336 2.79 247.128 3.554C247.92 4.314 248.316 5.36 248.316 6.692C248.316 7.996 247.916 9.04 247.116 9.824C246.316 10.608 245.25 11 243.918 11H241.074ZM242.262 9.902H243.846C244.862 9.902 245.662 9.628 246.246 9.08C246.83 8.528 247.122 7.734 247.122 6.698C247.122 5.646 246.828 4.852 246.24 4.316C245.656 3.776 244.86 3.506 243.852 3.506H242.262V9.902Z" fill="#616972"/>
<path d="M234.905 33.377C234.286 33.377 233.753 33.2757 233.305 33.073C232.862 32.8704 232.478 32.585 232.153 32.217C231.833 31.849 231.59 31.4624 231.425 31.057C231.265 30.6517 231.185 30.449 231.185 30.449L232.489 29.921C232.489 29.921 232.547 30.0704 232.665 30.369C232.787 30.6624 232.955 30.9424 233.169 31.209C233.382 31.4704 233.63 31.673 233.913 31.817C234.201 31.9557 234.547 32.025 234.953 32.025C235.619 32.025 236.161 31.817 236.577 31.401C236.993 30.9797 237.201 30.4757 237.201 29.889C237.201 29.2117 236.977 28.6917 236.529 28.329C236.086 27.9664 235.523 27.785 234.841 27.785H233.905V26.457H234.745C235.358 26.457 235.854 26.2864 236.233 25.945C236.617 25.5984 236.809 25.1317 236.809 24.545C236.809 24.0117 236.63 23.577 236.273 23.241C235.921 22.905 235.446 22.737 234.849 22.737C234.529 22.737 234.249 22.793 234.009 22.905C233.774 23.0117 233.566 23.1637 233.385 23.361C233.209 23.5584 233.059 23.777 232.937 24.017C232.819 24.257 232.761 24.377 232.761 24.377L231.457 23.825C231.457 23.825 231.539 23.6517 231.705 23.305C231.875 22.9584 232.113 22.6357 232.417 22.337C232.721 22.033 233.075 21.801 233.481 21.641C233.886 21.4757 234.358 21.393 234.897 21.393C235.953 21.393 236.774 21.6784 237.361 22.249C237.953 22.8144 238.249 23.5504 238.249 24.457C238.249 25.1024 238.102 25.6437 237.809 26.081C237.515 26.5184 237.099 26.8277 236.561 27.009V27.065C237.222 27.289 237.734 27.6464 238.097 28.137C238.459 28.6224 238.641 29.225 238.641 29.945C238.641 30.9157 238.289 31.7317 237.585 32.393C236.886 33.049 235.993 33.377 234.905 33.377Z" fill="#616972"/>
<rect y="302.577" width="94" height="55.3099" rx="6" fill="#DEE2E6"/>
<path d="M8.78 319.577V314.247H10.08V315.202L9.955 315.067H10.115C10.2283 314.771 10.4167 314.531 10.68 314.347C10.9433 314.161 11.235 314.067 11.555 314.067C11.6783 314.067 11.8 314.081 11.92 314.107C12.0433 314.134 12.155 314.171 12.255 314.217C12.3583 314.261 12.41 314.282 12.41 314.282L12.16 315.512C12.16 315.512 12.115 315.492 12.025 315.452C11.935 315.409 11.8367 315.374 11.73 315.347C11.6267 315.321 11.525 315.307 11.425 315.307C11.0683 315.307 10.7667 315.439 10.52 315.702C10.2767 315.962 10.155 316.357 10.155 316.887V319.577H8.78ZM15.7062 319.752C14.8095 319.752 14.0878 319.486 13.5412 318.952C12.9978 318.416 12.7262 317.737 12.7262 316.917C12.7262 316.091 13.0012 315.411 13.5512 314.877C14.1045 314.341 14.8228 314.072 15.7062 314.072C16.5928 314.072 17.3112 314.344 17.8612 314.887C18.4112 315.427 18.6862 316.104 18.6862 316.917C18.6862 317.731 18.4128 318.407 17.8662 318.947C17.3228 319.484 16.6028 319.752 15.7062 319.752ZM15.7062 318.567C16.1728 318.567 16.5528 318.416 16.8462 318.112C17.1395 317.806 17.2862 317.407 17.2862 316.917C17.2862 316.437 17.1412 316.041 16.8512 315.727C16.5612 315.414 16.1795 315.257 15.7062 315.257C15.2262 315.257 14.8428 315.412 14.5562 315.722C14.2695 316.032 14.1262 316.431 14.1262 316.917C14.1262 317.411 14.2712 317.809 14.5612 318.112C14.8512 318.416 15.2328 318.567 15.7062 318.567ZM22.464 319.752C21.5673 319.752 20.8457 319.486 20.299 318.952C19.7557 318.416 19.484 317.737 19.484 316.917C19.484 316.091 19.759 315.411 20.309 314.877C20.8623 314.341 21.5807 314.072 22.464 314.072C23.3507 314.072 24.069 314.344 24.619 314.887C25.169 315.427 25.444 316.104 25.444 316.917C25.444 317.731 25.1707 318.407 24.624 318.947C24.0807 319.484 23.3607 319.752 22.464 319.752ZM22.464 318.567C22.9307 318.567 23.3107 318.416 23.604 318.112C23.8973 317.806 24.044 317.407 24.044 316.917C24.044 316.437 23.899 316.041 23.609 315.727C23.319 315.414 22.9373 315.257 22.464 315.257C21.984 315.257 21.6007 315.412 21.314 315.722C21.0273 316.032 20.884 316.431 20.884 316.917C20.884 317.411 21.029 317.809 21.319 318.112C21.609 318.416 21.9907 318.567 22.464 318.567ZM26.6218 319.577V314.252H27.9368V315.147L27.8318 314.997H27.9668C28.1368 314.727 28.3801 314.506 28.6968 314.332C29.0168 314.159 29.3685 314.072 29.7518 314.072C30.1651 314.072 30.5168 314.161 30.8068 314.337C31.1001 314.511 31.3101 314.772 31.4368 315.122C31.6268 314.799 31.8901 314.544 32.2268 314.357C32.5668 314.167 32.9418 314.072 33.3518 314.072C33.9518 314.072 34.4135 314.242 34.7368 314.582C35.0635 314.922 35.2268 315.392 35.2268 315.992V319.577H33.8568V316.332C33.8568 315.959 33.7685 315.679 33.5918 315.492C33.4151 315.306 33.1601 315.212 32.8268 315.212C32.4901 315.212 32.2035 315.336 31.9668 315.582C31.7301 315.826 31.6118 316.141 31.6118 316.527V319.577H30.2368V316.317C30.2368 315.937 30.1451 315.657 29.9618 315.477C29.7785 315.297 29.5235 315.207 29.1968 315.207C28.8701 315.207 28.5885 315.334 28.3518 315.587C28.1151 315.837 27.9968 316.139 27.9968 316.492V319.577H26.6218ZM36.7395 319.577V314.247H38.1145V319.577H36.7395ZM37.4395 313.317C37.2128 313.317 37.0178 313.237 36.8545 313.077C36.6911 312.914 36.6095 312.721 36.6095 312.497C36.6095 312.267 36.6911 312.077 36.8545 311.927C37.0178 311.774 37.2128 311.697 37.4395 311.697C37.6728 311.697 37.8661 311.774 38.0195 311.927C38.1728 312.077 38.2495 312.267 38.2495 312.497C38.2495 312.721 38.1728 312.914 38.0195 313.077C37.8661 313.237 37.6728 313.317 37.4395 313.317ZM42.223 319.752C41.3563 319.752 40.6546 319.492 40.118 318.972C39.5846 318.449 39.318 317.764 39.318 316.917C39.318 316.131 39.5746 315.461 40.088 314.907C40.6046 314.351 41.3063 314.072 42.193 314.072C42.9796 314.072 43.6196 314.314 44.113 314.797C44.6063 315.277 44.853 315.877 44.853 316.597V317.272H40.043V316.442H43.578V316.437C43.558 316.077 43.4263 315.776 43.183 315.532C42.943 315.286 42.6113 315.162 42.188 315.162C41.7513 315.162 41.3896 315.316 41.103 315.622C40.8163 315.929 40.673 316.356 40.673 316.902C40.673 317.482 40.828 317.921 41.138 318.217C41.448 318.514 41.8413 318.662 42.318 318.662C42.5246 318.662 42.7096 318.639 42.873 318.592C43.0396 318.542 43.1946 318.474 43.338 318.387C43.4846 318.297 43.6513 318.156 43.838 317.962L44.653 318.667C44.423 318.951 44.1946 319.164 43.968 319.307C43.7446 319.451 43.4963 319.561 43.223 319.637C42.9496 319.714 42.6163 319.752 42.223 319.752ZM50.9219 319.752C50.1819 319.752 49.5635 319.494 49.0669 318.977C48.5702 318.457 48.3219 317.772 48.3219 316.922C48.3219 316.059 48.5669 315.369 49.0569 314.852C49.5469 314.336 50.1485 314.077 50.8619 314.077C51.2852 314.077 51.6535 314.169 51.9669 314.352C52.2835 314.532 52.5202 314.752 52.6769 315.012H52.7119V312.197H54.0819V319.577H52.7419V318.667L52.9419 318.887H52.7069C52.5302 319.134 52.2902 319.341 51.9869 319.507C51.6835 319.671 51.3285 319.752 50.9219 319.752ZM51.2419 318.612C51.6919 318.612 52.0569 318.461 52.3369 318.157C52.6169 317.851 52.7569 317.441 52.7569 316.927C52.7569 316.414 52.6135 316.002 52.3269 315.692C52.0402 315.379 51.6785 315.222 51.2419 315.222C50.7819 315.222 50.4119 315.379 50.1319 315.692C49.8552 316.006 49.7169 316.416 49.7169 316.922C49.7169 317.426 49.8552 317.834 50.1319 318.147C50.4085 318.457 50.7785 318.612 51.2419 318.612ZM55.6652 319.577V314.247H57.0402V319.577H55.6652ZM56.3652 313.317C56.1386 313.317 55.9436 313.237 55.7802 313.077C55.6169 312.914 55.5352 312.721 55.5352 312.497C55.5352 312.267 55.6169 312.077 55.7802 311.927C55.9436 311.774 56.1386 311.697 56.3652 311.697C56.5986 311.697 56.7919 311.774 56.9452 311.927C57.0986 312.077 57.1752 312.267 57.1752 312.497C57.1752 312.721 57.0986 312.914 56.9452 313.077C56.7919 313.237 56.5986 313.317 56.3652 313.317ZM58.6238 319.577V314.247H59.9388V315.197L59.7888 315.002H59.9738C60.1671 314.722 60.4271 314.497 60.7538 314.327C61.0804 314.157 61.4488 314.072 61.8588 314.072C62.4621 314.072 62.9338 314.242 63.2738 314.582C63.6138 314.919 63.7838 315.377 63.7838 315.957V319.577H62.4038V316.317C62.4038 315.961 62.3171 315.687 62.1438 315.497C61.9738 315.304 61.7004 315.207 61.3238 315.207C60.9404 315.207 60.6238 315.329 60.3738 315.572C60.1238 315.816 59.9988 316.124 59.9988 316.497V319.577H58.6238ZM65.2644 319.577V314.247H66.5794V315.197L66.4294 315.002H66.6144C66.8077 314.722 67.0677 314.497 67.3944 314.327C67.721 314.157 68.0894 314.072 68.4994 314.072C69.1027 314.072 69.5744 314.242 69.9144 314.582C70.2544 314.919 70.4244 315.377 70.4244 315.957V319.577H69.0444V316.317C69.0444 315.961 68.9577 315.687 68.7844 315.497C68.6144 315.304 68.341 315.207 67.9644 315.207C67.581 315.207 67.2644 315.329 67.0144 315.572C66.7644 315.816 66.6394 316.124 66.6394 316.497V319.577H65.2644ZM74.43 319.752C73.5633 319.752 72.8617 319.492 72.325 318.972C71.7917 318.449 71.525 317.764 71.525 316.917C71.525 316.131 71.7817 315.461 72.295 314.907C72.8117 314.351 73.5133 314.072 74.4 314.072C75.1867 314.072 75.8267 314.314 76.32 314.797C76.8133 315.277 77.06 315.877 77.06 316.597V317.272H72.25V316.442H75.785V316.437C75.765 316.077 75.6333 315.776 75.39 315.532C75.15 315.286 74.8183 315.162 74.395 315.162C73.9583 315.162 73.5967 315.316 73.31 315.622C73.0233 315.929 72.88 316.356 72.88 316.902C72.88 317.482 73.035 317.921 73.345 318.217C73.655 318.514 74.0483 318.662 74.525 318.662C74.7317 318.662 74.9167 318.639 75.08 318.592C75.2467 318.542 75.4017 318.474 75.545 318.387C75.6917 318.297 75.8583 318.156 76.045 317.962L76.86 318.667C76.63 318.951 76.4017 319.164 76.175 319.307C75.9517 319.451 75.7033 319.561 75.43 319.637C75.1567 319.714 74.8233 319.752 74.43 319.752ZM78.2624 319.577V314.247H79.5624V315.202L79.4374 315.067H79.5974C79.7108 314.771 79.8991 314.531 80.1624 314.347C80.4258 314.161 80.7174 314.067 81.0374 314.067C81.1608 314.067 81.2824 314.081 81.4024 314.107C81.5258 314.134 81.6374 314.171 81.7374 314.217C81.8408 314.261 81.8924 314.282 81.8924 314.282L81.6424 315.512C81.6424 315.512 81.5974 315.492 81.5074 315.452C81.4174 315.409 81.3191 315.374 81.2124 315.347C81.1091 315.321 81.0074 315.307 80.9074 315.307C80.5508 315.307 80.2491 315.439 80.0024 315.702C79.7591 315.962 79.6374 316.357 79.6374 316.887V319.577H78.2624Z" fill="#616972"/>
<path d="M8.68 332.577V326.629H9.496V328.849H9.52C9.656 328.652 9.84933 328.485 10.1 328.349C10.3507 328.211 10.6587 328.141 11.024 328.141C11.5253 328.141 11.9093 328.273 12.176 328.537C12.4453 328.799 12.58 329.164 12.58 329.633V332.577H11.764V329.825C11.764 329.481 11.68 329.231 11.512 329.073C11.344 328.916 11.0933 328.837 10.76 328.837C10.3813 328.837 10.076 328.952 9.844 329.181C9.612 329.411 9.496 329.689 9.496 330.017V332.577H8.68ZM15.8951 332.713C15.1965 332.713 14.6351 332.497 14.2111 332.065C13.7898 331.633 13.5791 331.091 13.5791 330.437C13.5791 329.773 13.7951 329.225 14.2271 328.793C14.6591 328.359 15.2151 328.141 15.8951 328.141C16.5805 328.141 17.1391 328.363 17.5711 328.805C18.0031 329.248 18.2191 329.792 18.2191 330.437C18.2191 331.08 18.0071 331.62 17.5831 332.057C17.1591 332.495 16.5965 332.713 15.8951 332.713ZM15.8951 331.977C16.3298 331.977 16.6858 331.836 16.9631 331.553C17.2431 331.271 17.3831 330.899 17.3831 330.437C17.3831 329.987 17.2431 329.615 16.9631 329.321C16.6858 329.025 16.3298 328.877 15.8951 328.877C15.4578 328.877 15.1018 329.023 14.8271 329.313C14.5525 329.601 14.4151 329.976 14.4151 330.437C14.4151 330.899 14.5525 331.271 14.8271 331.553C15.1045 331.836 15.4605 331.977 15.8951 331.977ZM19.2738 332.577V328.281H20.0538V328.985L19.9858 328.869H20.0778C20.2244 328.656 20.4231 328.481 20.6738 328.345C20.9271 328.209 21.2071 328.141 21.5138 328.141C21.8684 328.141 22.1644 328.216 22.4018 328.365C22.6418 328.515 22.8018 328.735 22.8818 329.025C23.0178 328.759 23.2231 328.545 23.4978 328.385C23.7724 328.223 24.0818 328.141 24.4258 328.141C24.9218 328.141 25.2978 328.276 25.5538 328.545C25.8098 328.815 25.9378 329.184 25.9378 329.653V332.577H25.1218V329.833C25.1218 329.5 25.0378 329.252 24.8698 329.089C24.7044 328.924 24.4644 328.841 24.1498 328.841C23.8431 328.841 23.5764 328.952 23.3498 329.173C23.1258 329.395 23.0138 329.687 23.0138 330.049V332.577H22.1978V329.825C22.1978 329.481 22.1111 329.231 21.9378 329.073C21.7644 328.916 21.5258 328.837 21.2218 328.837C20.9124 328.837 20.6458 328.952 20.4218 329.181C20.2004 329.411 20.0898 329.684 20.0898 330.001V332.577H19.2738ZM29.1945 332.713C28.5198 332.713 27.9745 332.504 27.5585 332.085C27.1452 331.667 26.9385 331.117 26.9385 330.437C26.9385 329.8 27.1385 329.259 27.5385 328.813C27.9385 328.365 28.4812 328.141 29.1665 328.141C29.7878 328.141 30.2838 328.332 30.6545 328.713C31.0278 329.092 31.2145 329.575 31.2145 330.161V330.665H27.3945V330.037H30.4225V330.033C30.4092 329.703 30.2945 329.423 30.0785 329.193C29.8652 328.961 29.5612 328.845 29.1665 328.845C28.7612 328.845 28.4252 328.987 28.1585 329.269C27.8918 329.549 27.7585 329.937 27.7585 330.433C27.7585 330.953 27.8958 331.344 28.1705 331.605C28.4452 331.867 28.7998 331.997 29.2345 331.997C29.4185 331.997 29.5825 331.976 29.7265 331.933C29.8705 331.891 30.0065 331.831 30.1345 331.753C30.2652 331.673 30.4105 331.551 30.5705 331.385L31.0945 331.837C30.9132 332.064 30.7358 332.235 30.5625 332.349C30.3918 332.461 30.2012 332.549 29.9905 332.613C29.7798 332.68 29.5145 332.713 29.1945 332.713Z" fill="#616972"/>
<rect y="79.1692" width="94" height="65.0704" rx="6" fill="#DEE2E6"/>
<path d="M8.78 96.1692V88.7892H10.155V96.1692H8.78ZM14.2347 96.3442C13.368 96.3442 12.6664 96.0842 12.1297 95.5642C11.5964 95.0409 11.3297 94.3559 11.3297 93.5092C11.3297 92.7225 11.5864 92.0525 12.0997 91.4992C12.6164 90.9425 13.318 90.6642 14.2047 90.6642C14.9914 90.6642 15.6314 90.9059 16.1247 91.3892C16.618 91.8692 16.8647 92.4692 16.8647 93.1892V93.8642H12.0547V93.0342H15.5897V93.0292C15.5697 92.6692 15.438 92.3675 15.1947 92.1242C14.9547 91.8775 14.623 91.7542 14.1997 91.7542C13.763 91.7542 13.4014 91.9075 13.1147 92.2142C12.828 92.5209 12.6847 92.9475 12.6847 93.4942C12.6847 94.0742 12.8397 94.5125 13.1497 94.8092C13.4597 95.1059 13.853 95.2542 14.3297 95.2542C14.5364 95.2542 14.7214 95.2309 14.8847 95.1842C15.0514 95.1342 15.2064 95.0659 15.3497 94.9792C15.4964 94.8892 15.663 94.7475 15.8497 94.5542L16.6647 95.2592C16.4347 95.5425 16.2064 95.7559 15.9797 95.8992C15.7564 96.0425 15.508 96.1525 15.2347 96.2292C14.9614 96.3059 14.628 96.3442 14.2347 96.3442ZM20.5871 96.3492C19.7171 96.3492 19.0154 96.0809 18.4821 95.5442C17.9521 95.0042 17.6871 94.3259 17.6871 93.5092C17.6871 92.6925 17.9504 92.0142 18.4771 91.4742C19.0071 90.9309 19.7221 90.6592 20.6221 90.6592C20.9188 90.6592 21.1871 90.6925 21.4271 90.7592C21.6704 90.8259 21.8971 90.9242 22.1071 91.0542C22.3204 91.1842 22.5538 91.3875 22.8071 91.6642L21.9021 92.4592C21.7354 92.2892 21.5921 92.1642 21.4721 92.0842C21.3554 92.0042 21.2271 91.9459 21.0871 91.9092C20.9504 91.8692 20.7938 91.8492 20.6171 91.8492C20.1771 91.8492 19.8104 92.0025 19.5171 92.3092C19.2271 92.6159 19.0821 93.0142 19.0821 93.5042C19.0821 94.0042 19.2304 94.4042 19.5271 94.7042C19.8271 95.0042 20.1904 95.1542 20.6171 95.1542C20.8038 95.1542 20.9738 95.1309 21.1271 95.0842C21.2804 95.0375 21.4188 94.9709 21.5421 94.8842C21.6654 94.7942 21.8088 94.6542 21.9721 94.4642L22.9621 95.1592C22.7221 95.4825 22.4888 95.7209 22.2621 95.8742C22.0388 96.0275 21.7854 96.1442 21.5021 96.2242C21.2188 96.3075 20.9138 96.3492 20.5871 96.3492ZM25.9708 96.3442C25.4541 96.3442 25.0474 96.2042 24.7508 95.9242C24.4574 95.6442 24.3108 95.2259 24.3108 94.6692V89.4892H25.6808V94.5392C25.6808 94.7692 25.7308 94.9409 25.8308 95.0542C25.9341 95.1642 26.0958 95.2192 26.3158 95.2192C26.3991 95.2192 26.4824 95.2092 26.5658 95.1892C26.6524 95.1692 26.7474 95.1359 26.8508 95.0892C26.9574 95.0392 27.0108 95.0142 27.0108 95.0142L27.2908 95.9942C27.2908 95.9942 27.2208 96.0292 27.0808 96.0992C26.9408 96.1659 26.7791 96.2225 26.5958 96.2692C26.4158 96.3192 26.2074 96.3442 25.9708 96.3442ZM23.3958 91.9442V90.8392H27.0658V91.9442H23.3958ZM30.2303 96.3442C29.6036 96.3442 29.122 96.1725 28.7853 95.8292C28.4486 95.4859 28.2803 95.0059 28.2803 94.3892V90.8392H29.6553V94.0842C29.6553 94.4909 29.747 94.7842 29.9303 94.9642C30.1136 95.1442 30.3853 95.2342 30.7453 95.2342C31.0986 95.2342 31.3953 95.1125 31.6353 94.8692C31.8753 94.6225 31.9953 94.3075 31.9953 93.9242V90.8392H33.3703V96.1692H32.0653V94.7992L32.6953 95.4342H32.0253C31.862 95.6875 31.6253 95.9025 31.3153 96.0792C31.0053 96.2559 30.6436 96.3442 30.2303 96.3442ZM34.9323 96.1692V90.8392H36.2323V91.7942L36.1073 91.6592H36.2673C36.3807 91.3625 36.569 91.1225 36.8323 90.9392C37.0957 90.7525 37.3873 90.6592 37.7073 90.6592C37.8307 90.6592 37.9523 90.6725 38.0723 90.6992C38.1957 90.7259 38.3073 90.7625 38.4073 90.8092C38.5107 90.8525 38.5623 90.8742 38.5623 90.8742L38.3123 92.1042C38.3123 92.1042 38.2673 92.0842 38.1773 92.0442C38.0873 92.0009 37.989 91.9659 37.8823 91.9392C37.779 91.9125 37.6773 91.8992 37.5773 91.8992C37.2207 91.8992 36.919 92.0309 36.6723 92.2942C36.429 92.5542 36.3073 92.9492 36.3073 93.4792V96.1692H34.9323ZM41.7835 96.3442C40.9168 96.3442 40.2152 96.0842 39.6785 95.5642C39.1452 95.0409 38.8785 94.3559 38.8785 93.5092C38.8785 92.7225 39.1352 92.0525 39.6485 91.4992C40.1652 90.9425 40.8668 90.6642 41.7535 90.6642C42.5402 90.6642 43.1802 90.9059 43.6735 91.3892C44.1668 91.8692 44.4135 92.4692 44.4135 93.1892V93.8642H39.6035V93.0342H43.1385V93.0292C43.1185 92.6692 42.9868 92.3675 42.7435 92.1242C42.5035 91.8775 42.1718 91.7542 41.7485 91.7542C41.3118 91.7542 40.9502 91.9075 40.6635 92.2142C40.3768 92.5209 40.2335 92.9475 40.2335 93.4942C40.2335 94.0742 40.3885 94.5125 40.6985 94.8092C41.0085 95.1059 41.4018 95.2542 41.8785 95.2542C42.0852 95.2542 42.2702 95.2309 42.4335 95.1842C42.6002 95.1342 42.7552 95.0659 42.8985 94.9792C43.0452 94.8892 43.2118 94.7475 43.3985 94.5542L44.2135 95.2592C43.9835 95.5425 43.7552 95.7559 43.5285 95.8992C43.3052 96.0425 43.0568 96.1525 42.7835 96.2292C42.5102 96.3059 42.1768 96.3442 41.7835 96.3442Z" fill="#616972"/>
<path d="M10.084 109.309C9.78 109.309 9.52 109.268 9.304 109.185C9.088 109.105 8.90133 108.993 8.744 108.849C8.58933 108.705 8.47333 108.563 8.396 108.421C8.32133 108.28 8.284 108.209 8.284 108.209L8.888 107.865C8.888 107.865 8.92133 107.921 8.988 108.033C9.05467 108.143 9.13733 108.244 9.236 108.337C9.33467 108.431 9.456 108.504 9.6 108.557C9.744 108.608 9.90667 108.633 10.088 108.633C10.3573 108.633 10.5733 108.577 10.736 108.465C10.9013 108.351 10.984 108.203 10.984 108.021C10.984 107.824 10.9053 107.672 10.748 107.565C10.5907 107.459 10.332 107.36 9.972 107.269C9.39333 107.12 9.00133 106.947 8.796 106.749C8.59067 106.549 8.488 106.277 8.488 105.933C8.488 105.579 8.632 105.289 8.92 105.065C9.21067 104.841 9.58267 104.729 10.036 104.729C10.2707 104.729 10.4773 104.756 10.656 104.809C10.8347 104.86 10.996 104.935 11.14 105.033C11.2867 105.132 11.4013 105.235 11.484 105.341C11.5693 105.445 11.612 105.497 11.612 105.497L11.056 105.885C11.056 105.885 11.0213 105.848 10.952 105.773C10.8853 105.699 10.808 105.633 10.72 105.577C10.6347 105.519 10.5373 105.476 10.428 105.449C10.3213 105.42 10.1933 105.405 10.044 105.405C9.79067 105.405 9.592 105.455 9.448 105.553C9.304 105.652 9.232 105.775 9.232 105.921C9.232 106.039 9.28133 106.147 9.38 106.245C9.47867 106.341 9.8 106.467 10.344 106.621C10.8453 106.763 11.2053 106.936 11.424 107.141C11.6427 107.347 11.752 107.621 11.752 107.965C11.752 108.371 11.5947 108.696 11.28 108.941C10.968 109.187 10.5693 109.309 10.084 109.309ZM14.2099 109.305C13.8393 109.305 13.5473 109.2 13.3339 108.989C13.1233 108.776 13.0179 108.48 13.0179 108.101V103.797H13.8299V108.029C13.8299 108.205 13.8699 108.341 13.9499 108.437C14.0326 108.531 14.1659 108.577 14.3499 108.577C14.4086 108.577 14.4753 108.568 14.5499 108.549C14.6246 108.531 14.7073 108.499 14.7979 108.453C14.8913 108.405 14.9379 108.381 14.9379 108.381L15.1979 109.001C15.1979 109.001 15.1419 109.032 15.0299 109.093C14.9206 109.155 14.7966 109.205 14.6579 109.245C14.5193 109.285 14.3699 109.305 14.2099 109.305ZM12.2579 105.593V104.869H14.9979V105.593H12.2579ZM17.3855 109.305C16.9242 109.305 16.5442 109.177 16.2455 108.921C15.9468 108.663 15.7975 108.299 15.7975 107.829C15.7975 107.36 15.9575 106.993 16.2775 106.729C16.6002 106.463 17.0215 106.329 17.5415 106.329C17.8135 106.329 18.0562 106.36 18.2695 106.421C18.4828 106.483 18.6775 106.568 18.8535 106.677V106.389C18.8535 106.067 18.7495 105.828 18.5415 105.673C18.3362 105.519 18.0735 105.441 17.7535 105.441C17.5828 105.441 17.4295 105.461 17.2935 105.501C17.1602 105.539 17.0455 105.583 16.9495 105.633C16.8535 105.684 16.7468 105.753 16.6295 105.841C16.5122 105.927 16.4535 105.969 16.4535 105.969L16.0055 105.445C16.0055 105.445 16.0668 105.396 16.1895 105.297C16.3122 105.199 16.4562 105.104 16.6215 105.013C16.7895 104.92 16.9668 104.849 17.1535 104.801C17.3402 104.753 17.5682 104.729 17.8375 104.729C18.3682 104.729 18.8055 104.876 19.1495 105.169C19.4935 105.46 19.6655 105.863 19.6655 106.377V109.169H18.8895V108.405L19.0135 108.601H18.8655C18.7455 108.783 18.5588 108.945 18.3055 109.089C18.0548 109.233 17.7482 109.305 17.3855 109.305ZM17.5815 108.653C17.9335 108.653 18.2362 108.527 18.4895 108.273C18.7428 108.02 18.8695 107.729 18.8695 107.401V107.365C18.7335 107.227 18.5588 107.12 18.3455 107.045C18.1322 106.971 17.9162 106.933 17.6975 106.933C17.3615 106.933 17.0988 107.011 16.9095 107.165C16.7202 107.32 16.6255 107.531 16.6255 107.797C16.6255 108.067 16.7082 108.277 16.8735 108.429C17.0415 108.579 17.2775 108.653 17.5815 108.653ZM22.3896 109.305C22.019 109.305 21.727 109.2 21.5136 108.989C21.303 108.776 21.1976 108.48 21.1976 108.101V103.797H22.0096V108.029C22.0096 108.205 22.0496 108.341 22.1296 108.437C22.2123 108.531 22.3456 108.577 22.5296 108.577C22.5883 108.577 22.655 108.568 22.7296 108.549C22.8043 108.531 22.887 108.499 22.9776 108.453C23.071 108.405 23.1176 108.381 23.1176 108.381L23.3776 109.001C23.3776 109.001 23.3216 109.032 23.2096 109.093C23.1003 109.155 22.9763 109.205 22.8376 109.245C22.699 109.285 22.5496 109.305 22.3896 109.305ZM20.4376 105.593V104.869H23.1776V105.593H20.4376ZM24.2972 109.169V103.221H25.1132V109.169H24.2972ZM28.4289 109.305C27.7542 109.305 27.2089 109.096 26.7929 108.677C26.3795 108.259 26.1729 107.709 26.1729 107.029C26.1729 106.392 26.3729 105.851 26.7729 105.405C27.1729 104.957 27.7155 104.733 28.4009 104.733C29.0222 104.733 29.5182 104.924 29.8889 105.305C30.2622 105.684 30.4489 106.167 30.4489 106.753V107.257H26.6289V106.629H29.6569V106.625C29.6435 106.295 29.5289 106.015 29.3129 105.785C29.0995 105.553 28.7955 105.437 28.4009 105.437C27.9955 105.437 27.6595 105.579 27.3929 105.861C27.1262 106.141 26.9929 106.529 26.9929 107.025C26.9929 107.545 27.1302 107.936 27.4049 108.197C27.6795 108.459 28.0342 108.589 28.4689 108.589C28.6529 108.589 28.8169 108.568 28.9609 108.525C29.1049 108.483 29.2409 108.423 29.3689 108.345C29.4995 108.265 29.6449 108.143 29.8049 107.977L30.3289 108.429C30.1475 108.656 29.9702 108.827 29.7969 108.941C29.6262 109.053 29.4355 109.141 29.2249 109.205C29.0142 109.272 28.7489 109.305 28.4289 109.305ZM31.5316 109.169V104.869H32.2956V105.601L32.2236 105.521H32.3196C32.4129 105.289 32.5676 105.1 32.7836 104.953C32.9996 104.804 33.2409 104.729 33.5076 104.729C33.5956 104.729 33.6889 104.739 33.7876 104.757C33.8862 104.776 33.9809 104.807 34.0716 104.849C34.1622 104.889 34.2076 104.909 34.2076 104.909L34.0116 105.637C34.0116 105.637 33.9756 105.621 33.9036 105.589C33.8342 105.555 33.7609 105.528 33.6836 105.509C33.6062 105.491 33.5316 105.481 33.4596 105.481C33.1422 105.481 32.8769 105.601 32.6636 105.841C32.4529 106.079 32.3476 106.427 32.3476 106.885V109.169H31.5316ZM38.4714 109.305C38.0101 109.305 37.6301 109.177 37.3314 108.921C37.0328 108.663 36.8834 108.299 36.8834 107.829C36.8834 107.36 37.0434 106.993 37.3634 106.729C37.6861 106.463 38.1074 106.329 38.6274 106.329C38.8994 106.329 39.1421 106.36 39.3554 106.421C39.5688 106.483 39.7634 106.568 39.9394 106.677V106.389C39.9394 106.067 39.8354 105.828 39.6274 105.673C39.4221 105.519 39.1594 105.441 38.8394 105.441C38.6688 105.441 38.5154 105.461 38.3794 105.501C38.2461 105.539 38.1314 105.583 38.0354 105.633C37.9394 105.684 37.8328 105.753 37.7154 105.841C37.5981 105.927 37.5394 105.969 37.5394 105.969L37.0914 105.445C37.0914 105.445 37.1528 105.396 37.2754 105.297C37.3981 105.199 37.5421 105.104 37.7074 105.013C37.8754 104.92 38.0528 104.849 38.2394 104.801C38.4261 104.753 38.6541 104.729 38.9234 104.729C39.4541 104.729 39.8914 104.876 40.2354 105.169C40.5794 105.46 40.7514 105.863 40.7514 106.377V109.169H39.9754V108.405L40.0994 108.601H39.9514C39.8314 108.783 39.6448 108.945 39.3914 109.089C39.1408 109.233 38.8341 109.305 38.4714 109.305ZM38.6674 108.653C39.0194 108.653 39.3221 108.527 39.5754 108.273C39.8288 108.02 39.9554 107.729 39.9554 107.401V107.365C39.8194 107.227 39.6448 107.12 39.4314 107.045C39.2181 106.971 39.0021 106.933 38.7834 106.933C38.4474 106.933 38.1848 107.011 37.9954 107.165C37.8061 107.32 37.7114 107.531 37.7114 107.797C37.7114 108.067 37.7941 108.277 37.9594 108.429C38.1274 108.579 38.3634 108.653 38.6674 108.653ZM43.559 109.305C43.0603 109.305 42.675 109.171 42.403 108.901C42.1337 108.632 41.999 108.24 41.999 107.725V104.869H42.815V107.581C42.815 107.941 42.8963 108.203 43.059 108.365C43.2217 108.525 43.483 108.605 43.843 108.605C44.1683 108.605 44.4443 108.495 44.671 108.273C44.9003 108.049 45.015 107.753 45.015 107.385V104.869H45.831V109.169H45.051V108.197L45.427 108.573H45.027C44.8803 108.789 44.6857 108.965 44.443 109.101C44.2003 109.237 43.9057 109.305 43.559 109.305ZM48.9918 109.305C48.3998 109.305 47.8998 109.097 47.4918 108.681C47.0865 108.265 46.8838 107.716 46.8838 107.033C46.8838 106.327 47.0798 105.768 47.4718 105.357C47.8638 104.947 48.3425 104.741 48.9078 104.741C49.2838 104.741 49.6078 104.823 49.8798 104.985C50.1545 105.148 50.3558 105.339 50.4838 105.557H50.5078V103.221H51.3278V109.169H50.5278V108.405L50.6758 108.565H50.5038C50.3518 108.773 50.1491 108.949 49.8958 109.093C49.6451 109.235 49.3438 109.305 48.9918 109.305ZM49.1398 108.629C49.5478 108.629 49.8838 108.489 50.1478 108.209C50.4118 107.929 50.5438 107.541 50.5438 107.045C50.5438 106.552 50.4065 106.157 50.1318 105.861C49.8598 105.565 49.5291 105.417 49.1398 105.417C48.7185 105.417 48.3758 105.565 48.1118 105.861C47.8478 106.157 47.7158 106.548 47.7158 107.033C47.7158 107.519 47.8465 107.907 48.1078 108.197C48.3691 108.485 48.7131 108.629 49.1398 108.629ZM52.6958 109.169V104.869H53.5118V109.169H52.6958ZM53.1118 104.025C52.9651 104.025 52.8385 103.972 52.7318 103.865C52.6251 103.759 52.5718 103.633 52.5718 103.489C52.5718 103.34 52.6251 103.216 52.7318 103.117C52.8385 103.019 52.9651 102.969 53.1118 102.969C53.2638 102.969 53.3891 103.019 53.4878 103.117C53.5865 103.216 53.6358 103.341 53.6358 103.493C53.6358 103.635 53.5865 103.759 53.4878 103.865C53.3891 103.972 53.2638 104.025 53.1118 104.025ZM56.3271 109.305C55.9565 109.305 55.6645 109.2 55.4511 108.989C55.2405 108.776 55.1351 108.48 55.1351 108.101V103.797H55.9471V108.029C55.9471 108.205 55.9871 108.341 56.0671 108.437C56.1498 108.531 56.2831 108.577 56.4671 108.577C56.5258 108.577 56.5925 108.568 56.6671 108.549C56.7418 108.531 56.8245 108.499 56.9151 108.453C57.0085 108.405 57.0551 108.381 57.0551 108.381L57.3151 109.001C57.3151 109.001 57.2591 109.032 57.1471 109.093C57.0378 109.155 56.9138 109.205 56.7751 109.245C56.6365 109.285 56.4871 109.305 56.3271 109.305ZM54.3751 105.593V104.869H57.1151V105.593H54.3751ZM60.2467 109.305C59.548 109.305 58.9867 109.089 58.5627 108.657C58.1414 108.225 57.9307 107.683 57.9307 107.029C57.9307 106.365 58.1467 105.817 58.5787 105.385C59.0107 104.951 59.5667 104.733 60.2467 104.733C60.932 104.733 61.4907 104.955 61.9227 105.397C62.3547 105.84 62.5707 106.384 62.5707 107.029C62.5707 107.672 62.3587 108.212 61.9347 108.649C61.5107 109.087 60.948 109.305 60.2467 109.305ZM60.2467 108.569C60.6814 108.569 61.0374 108.428 61.3147 108.145C61.5947 107.863 61.7347 107.491 61.7347 107.029C61.7347 106.579 61.5947 106.207 61.3147 105.913C61.0374 105.617 60.6814 105.469 60.2467 105.469C59.8094 105.469 59.4534 105.615 59.1787 105.905C58.904 106.193 58.7667 106.568 58.7667 107.029C58.7667 107.491 58.904 107.863 59.1787 108.145C59.456 108.428 59.812 108.569 60.2467 108.569ZM63.6253 109.169V104.869H64.3893V105.601L64.3173 105.521H64.4133C64.5066 105.289 64.6613 105.1 64.8773 104.953C65.0933 104.804 65.3346 104.729 65.6013 104.729C65.6893 104.729 65.7826 104.739 65.8813 104.757C65.98 104.776 66.0746 104.807 66.1653 104.849C66.256 104.889 66.3013 104.909 66.3013 104.909L66.1053 105.637C66.1053 105.637 66.0693 105.621 65.9973 105.589C65.928 105.555 65.8546 105.528 65.7773 105.509C65.7 105.491 65.6253 105.481 65.5533 105.481C65.236 105.481 64.9706 105.601 64.7573 105.841C64.5466 106.079 64.4413 106.427 64.4413 106.885V109.169H63.6253ZM67.1177 109.169V104.869H67.9337V109.169H67.1177ZM67.5337 104.025C67.387 104.025 67.2604 103.972 67.1537 103.865C67.047 103.759 66.9937 103.633 66.9937 103.489C66.9937 103.34 67.047 103.216 67.1537 103.117C67.2604 103.019 67.387 102.969 67.5337 102.969C67.6857 102.969 67.811 103.019 67.9097 103.117C68.0084 103.216 68.0577 103.341 68.0577 103.493C68.0577 103.635 68.0084 103.759 67.9097 103.865C67.811 103.972 67.6857 104.025 67.5337 104.025ZM70.809 109.305C70.3103 109.305 69.925 109.171 69.653 108.901C69.3837 108.632 69.249 108.24 69.249 107.725V104.869H70.065V107.581C70.065 107.941 70.1463 108.203 70.309 108.365C70.4717 108.525 70.733 108.605 71.093 108.605C71.4183 108.605 71.6943 108.495 71.921 108.273C72.1503 108.049 72.265 107.753 72.265 107.385V104.869H73.081V109.169H72.301V108.197L72.677 108.573H72.277C72.1303 108.789 71.9357 108.965 71.693 109.101C71.4503 109.237 71.1557 109.305 70.809 109.305ZM74.4378 109.169V104.873H75.2178V105.577L75.1498 105.461H75.2418C75.3885 105.248 75.5871 105.073 75.8378 104.937C76.0911 104.801 76.3711 104.733 76.6778 104.733C77.0325 104.733 77.3285 104.808 77.5658 104.957C77.8058 105.107 77.9658 105.327 78.0458 105.617C78.1818 105.351 78.3871 105.137 78.6618 104.977C78.9365 104.815 79.2458 104.733 79.5898 104.733C80.0858 104.733 80.4618 104.868 80.7178 105.137C80.9738 105.407 81.1018 105.776 81.1018 106.245V109.169H80.2858V106.425C80.2858 106.092 80.2018 105.844 80.0338 105.681C79.8685 105.516 79.6285 105.433 79.3138 105.433C79.0071 105.433 78.7405 105.544 78.5138 105.765C78.2898 105.987 78.1778 106.279 78.1778 106.641V109.169H77.3618V106.417C77.3618 106.073 77.2751 105.823 77.1018 105.665C76.9285 105.508 76.6898 105.429 76.3858 105.429C76.0765 105.429 75.8098 105.544 75.5858 105.773C75.3645 106.003 75.2538 106.276 75.2538 106.593V109.169H74.4378Z" fill="#616972"/>
<rect x="188" y="297.155" width="94" height="77" rx="6" fill="#DEE2E6"/>
<path d="M196.78 314.155V306.775H198.155V314.155H196.78ZM202.31 314.33C201.413 314.33 200.691 314.063 200.145 313.53C199.601 312.993 199.33 312.315 199.33 311.495C199.33 310.668 199.605 309.988 200.155 309.455C200.708 308.918 201.426 308.65 202.31 308.65C203.196 308.65 203.915 308.922 204.465 309.465C205.015 310.005 205.29 310.682 205.29 311.495C205.29 312.308 205.016 312.985 204.47 313.525C203.926 314.062 203.206 314.33 202.31 314.33ZM202.31 313.145C202.776 313.145 203.156 312.993 203.45 312.69C203.743 312.383 203.89 311.985 203.89 311.495C203.89 311.015 203.745 310.618 203.455 310.305C203.165 309.992 202.783 309.835 202.31 309.835C201.83 309.835 201.446 309.99 201.16 310.3C200.873 310.61 200.73 311.008 200.73 311.495C200.73 311.988 200.875 312.387 201.165 312.69C201.455 312.993 201.836 313.145 202.31 313.145ZM209.068 314.33C208.171 314.33 207.449 314.063 206.903 313.53C206.359 312.993 206.088 312.315 206.088 311.495C206.088 310.668 206.363 309.988 206.913 309.455C207.466 308.918 208.184 308.65 209.068 308.65C209.954 308.65 210.673 308.922 211.222 309.465C211.773 310.005 212.048 310.682 212.048 311.495C212.048 312.308 211.774 312.985 211.228 313.525C210.684 314.062 209.964 314.33 209.068 314.33ZM209.068 313.145C209.534 313.145 209.914 312.993 210.208 312.69C210.501 312.383 210.648 311.985 210.648 311.495C210.648 311.015 210.503 310.618 210.213 310.305C209.923 309.992 209.541 309.835 209.068 309.835C208.588 309.835 208.204 309.99 207.918 310.3C207.631 310.61 207.488 311.008 207.488 311.495C207.488 311.988 207.633 312.387 207.923 312.69C208.213 312.993 208.594 313.145 209.068 313.145ZM213.225 316.35V308.83H214.565V309.955L214.265 309.625H214.6C214.77 309.342 215.017 309.108 215.34 308.925C215.664 308.742 216.035 308.65 216.455 308.65C217.172 308.65 217.774 308.908 218.26 309.425C218.747 309.942 218.99 310.63 218.99 311.49C218.99 312.35 218.737 313.038 218.23 313.555C217.727 314.072 217.132 314.33 216.445 314.33C216.009 314.33 215.634 314.243 215.32 314.07C215.01 313.893 214.782 313.682 214.635 313.435H214.6V316.35H213.225ZM216.075 313.185C216.542 313.185 216.91 313.027 217.18 312.71C217.454 312.393 217.59 311.983 217.59 311.48C217.59 310.973 217.449 310.567 217.165 310.26C216.885 309.95 216.522 309.795 216.075 309.795C215.622 309.795 215.254 309.955 214.97 310.275C214.69 310.595 214.55 311 214.55 311.49C214.55 311.993 214.685 312.402 214.955 312.715C215.225 313.028 215.599 313.185 216.075 313.185ZM222.815 314.155V306.775H224.19V314.155H222.815ZM227.32 314.33C226.743 314.33 226.27 314.172 225.9 313.855C225.53 313.538 225.345 313.1 225.345 312.54C225.345 311.967 225.55 311.518 225.96 311.195C226.373 310.872 226.912 310.71 227.575 310.71C227.888 310.71 228.172 310.745 228.425 310.815C228.682 310.882 228.91 310.973 229.11 311.09V310.77C229.11 310.417 228.993 310.155 228.76 309.985C228.53 309.812 228.228 309.725 227.855 309.725C227.652 309.725 227.472 309.745 227.315 309.785C227.158 309.825 227.015 309.877 226.885 309.94C226.755 310 226.62 310.078 226.48 310.175C226.34 310.272 226.27 310.32 226.27 310.32L225.62 309.505C225.62 309.505 225.705 309.443 225.875 309.32C226.045 309.197 226.238 309.082 226.455 308.975C226.675 308.868 226.91 308.787 227.16 308.73C227.41 308.673 227.695 308.645 228.015 308.645C228.765 308.645 229.362 308.833 229.805 309.21C230.248 309.583 230.47 310.105 230.47 310.775V314.155H229.16V313.15L229.375 313.48H229.125C228.958 313.72 228.722 313.922 228.415 314.085C228.108 314.248 227.743 314.33 227.32 314.33ZM227.73 313.36C228.137 313.36 228.472 313.225 228.735 312.955C228.998 312.685 229.13 312.363 229.13 311.99V311.945C228.973 311.812 228.783 311.708 228.56 311.635C228.337 311.562 228.103 311.525 227.86 311.525C227.5 311.525 227.215 311.608 227.005 311.775C226.798 311.938 226.695 312.162 226.695 312.445C226.695 312.738 226.787 312.965 226.97 313.125C227.157 313.282 227.41 313.36 227.73 313.36ZM233.836 314.33C233.209 314.33 232.727 314.158 232.391 313.815C232.054 313.472 231.886 312.992 231.886 312.375V308.825H233.261V312.07C233.261 312.477 233.352 312.77 233.536 312.95C233.719 313.13 233.991 313.22 234.351 313.22C234.704 313.22 235.001 313.098 235.241 312.855C235.481 312.608 235.601 312.293 235.601 311.91V308.825H236.976V314.155H235.671V312.785L236.301 313.42H235.631C235.467 313.673 235.231 313.888 234.921 314.065C234.611 314.242 234.249 314.33 233.836 314.33ZM238.538 314.155V308.825H239.853V309.775L239.703 309.58H239.888C240.081 309.3 240.341 309.075 240.668 308.905C240.994 308.735 241.363 308.65 241.773 308.65C242.376 308.65 242.848 308.82 243.188 309.16C243.528 309.497 243.698 309.955 243.698 310.535V314.155H242.318V310.895C242.318 310.538 242.231 310.265 242.058 310.075C241.888 309.882 241.614 309.785 241.238 309.785C240.854 309.785 240.538 309.907 240.288 310.15C240.038 310.393 239.913 310.702 239.913 311.075V314.155H238.538ZM247.698 314.335C246.828 314.335 246.127 314.067 245.593 313.53C245.063 312.99 244.798 312.312 244.798 311.495C244.798 310.678 245.062 310 245.588 309.46C246.118 308.917 246.833 308.645 247.733 308.645C248.03 308.645 248.298 308.678 248.538 308.745C248.782 308.812 249.008 308.91 249.218 309.04C249.432 309.17 249.665 309.373 249.918 309.65L249.013 310.445C248.847 310.275 248.703 310.15 248.583 310.07C248.467 309.99 248.338 309.932 248.198 309.895C248.062 309.855 247.905 309.835 247.728 309.835C247.288 309.835 246.922 309.988 246.628 310.295C246.338 310.602 246.193 311 246.193 311.49C246.193 311.99 246.342 312.39 246.638 312.69C246.938 312.99 247.302 313.14 247.728 313.14C247.915 313.14 248.085 313.117 248.238 313.07C248.392 313.023 248.53 312.957 248.653 312.87C248.777 312.78 248.92 312.64 249.083 312.45L250.073 313.145C249.833 313.468 249.6 313.707 249.373 313.86C249.15 314.013 248.897 314.13 248.613 314.21C248.33 314.293 248.025 314.335 247.698 314.335ZM251.067 314.155V306.775H252.437V309.56H252.472C252.655 309.297 252.902 309.08 253.212 308.91C253.522 308.737 253.89 308.65 254.317 308.65C254.917 308.65 255.385 308.82 255.722 309.16C256.059 309.497 256.227 309.955 256.227 310.535V314.155H254.847V310.89C254.847 310.513 254.755 310.235 254.572 310.055C254.392 309.872 254.125 309.78 253.772 309.78C253.379 309.78 253.059 309.907 252.812 310.16C252.565 310.41 252.442 310.713 252.442 311.07V314.155H251.067ZM196.78 328.35V320.83H198.12V321.955L197.82 321.625H198.155C198.325 321.342 198.572 321.108 198.895 320.925C199.218 320.742 199.59 320.65 200.01 320.65C200.727 320.65 201.328 320.908 201.815 321.425C202.302 321.942 202.545 322.63 202.545 323.49C202.545 324.35 202.292 325.038 201.785 325.555C201.282 326.072 200.687 326.33 200 326.33C199.563 326.33 199.188 326.243 198.875 326.07C198.565 325.893 198.337 325.682 198.19 325.435H198.155V328.35H196.78ZM199.63 325.185C200.097 325.185 200.465 325.027 200.735 324.71C201.008 324.393 201.145 323.983 201.145 323.48C201.145 322.973 201.003 322.567 200.72 322.26C200.44 321.95 200.077 321.795 199.63 321.795C199.177 321.795 198.808 321.955 198.525 322.275C198.245 322.595 198.105 323 198.105 323.49C198.105 323.993 198.24 324.402 198.51 324.715C198.78 325.028 199.153 325.185 199.63 325.185ZM205.298 326.33C204.722 326.33 204.248 326.172 203.878 325.855C203.508 325.538 203.323 325.1 203.323 324.54C203.323 323.967 203.528 323.518 203.938 323.195C204.352 322.872 204.89 322.71 205.553 322.71C205.867 322.71 206.15 322.745 206.403 322.815C206.66 322.882 206.888 322.973 207.088 323.09V322.77C207.088 322.417 206.972 322.155 206.738 321.985C206.508 321.812 206.207 321.725 205.833 321.725C205.63 321.725 205.45 321.745 205.293 321.785C205.137 321.825 204.993 321.877 204.863 321.94C204.733 322 204.598 322.078 204.458 322.175C204.318 322.272 204.248 322.32 204.248 322.32L203.598 321.505C203.598 321.505 203.683 321.443 203.853 321.32C204.023 321.197 204.217 321.082 204.433 320.975C204.653 320.868 204.888 320.787 205.138 320.73C205.388 320.673 205.673 320.645 205.993 320.645C206.743 320.645 207.34 320.833 207.783 321.21C208.227 321.583 208.448 322.105 208.448 322.775V326.155H207.138V325.15L207.353 325.48H207.103C206.937 325.72 206.7 325.922 206.393 326.085C206.087 326.248 205.722 326.33 205.298 326.33ZM205.708 325.36C206.115 325.36 206.45 325.225 206.713 324.955C206.977 324.685 207.108 324.363 207.108 323.99V323.945C206.952 323.812 206.762 323.708 206.538 323.635C206.315 323.562 206.082 323.525 205.838 323.525C205.478 323.525 205.193 323.608 204.983 323.775C204.777 323.938 204.673 324.162 204.673 324.445C204.673 324.738 204.765 324.965 204.948 325.125C205.135 325.282 205.388 325.36 205.708 325.36ZM209.934 326.155V320.825H211.234V321.78L211.109 321.645H211.269C211.383 321.348 211.571 321.108 211.834 320.925C212.098 320.738 212.389 320.645 212.709 320.645C212.833 320.645 212.954 320.658 213.074 320.685C213.198 320.712 213.309 320.748 213.409 320.795C213.513 320.838 213.564 320.86 213.564 320.86L213.314 322.09C213.314 322.09 213.269 322.07 213.179 322.03C213.089 321.987 212.991 321.952 212.884 321.925C212.781 321.898 212.679 321.885 212.579 321.885C212.223 321.885 211.921 322.017 211.674 322.28C211.431 322.54 211.309 322.935 211.309 323.465V326.155H209.934ZM216.598 326.33C216.081 326.33 215.674 326.19 215.378 325.91C215.084 325.63 214.938 325.212 214.938 324.655V319.475H216.308V324.525C216.308 324.755 216.358 324.927 216.458 325.04C216.561 325.15 216.723 325.205 216.943 325.205C217.026 325.205 217.109 325.195 217.193 325.175C217.279 325.155 217.374 325.122 217.478 325.075C217.584 325.025 217.638 325 217.638 325L217.918 325.98C217.918 325.98 217.848 326.015 217.708 326.085C217.568 326.152 217.406 326.208 217.223 326.255C217.043 326.305 216.834 326.33 216.598 326.33ZM214.023 321.93V320.825H217.693V321.93H214.023ZM219.168 328.35L220.583 325.47L220.593 326.17L218.263 320.825H219.683L220.873 323.87L221.068 324.44H221.103L221.318 323.865L222.548 320.825H223.928L220.563 328.35H219.168ZM225.082 323.885L224.912 318.995H226.387L226.217 323.885H225.082ZM225.647 326.245C225.407 326.245 225.204 326.163 225.037 326C224.874 325.833 224.792 325.63 224.792 325.39C224.792 325.16 224.874 324.965 225.037 324.805C225.204 324.642 225.407 324.56 225.647 324.56C225.887 324.56 226.09 324.642 226.257 324.805C226.424 324.965 226.507 325.16 226.507 325.39C226.507 325.63 226.424 325.833 226.257 326C226.09 326.163 225.887 326.245 225.647 326.245ZM228.305 323.885L228.135 318.995H229.61L229.44 323.885H228.305ZM228.87 326.245C228.63 326.245 228.426 326.163 228.26 326C228.096 325.833 228.015 325.63 228.015 325.39C228.015 325.16 228.096 324.965 228.26 324.805C228.426 324.642 228.63 324.56 228.87 324.56C229.11 324.56 229.313 324.642 229.48 324.805C229.646 324.965 229.73 325.16 229.73 325.39C229.73 325.63 229.646 325.833 229.48 326C229.313 326.163 229.11 326.245 228.87 326.245ZM231.527 323.885L231.357 318.995H232.832L232.662 323.885H231.527ZM232.092 326.245C231.852 326.245 231.649 326.163 231.482 326C231.319 325.833 231.237 325.63 231.237 325.39C231.237 325.16 231.319 324.965 231.482 324.805C231.649 324.642 231.852 324.56 232.092 324.56C232.332 324.56 232.536 324.642 232.702 324.805C232.869 324.965 232.952 325.16 232.952 325.39C232.952 325.63 232.869 325.833 232.702 326C232.536 326.163 232.332 326.245 232.092 326.245Z" fill="#616972"/>
<path d="M198.636 339.295C197.945 339.295 197.396 339.078 196.988 338.643C196.58 338.206 196.376 337.659 196.376 337.003C196.376 336.355 196.577 335.812 196.98 335.375C197.385 334.935 197.941 334.715 198.648 334.715C198.869 334.715 199.068 334.738 199.244 334.783C199.423 334.826 199.588 334.888 199.74 334.971C199.892 335.051 200.079 335.186 200.3 335.375L199.792 335.939C199.637 335.806 199.508 335.707 199.404 335.643C199.3 335.579 199.187 335.532 199.064 335.503C198.941 335.471 198.8 335.455 198.64 335.455C198.224 335.455 197.881 335.599 197.612 335.887C197.343 336.172 197.208 336.544 197.208 337.003C197.208 337.462 197.344 337.835 197.616 338.123C197.891 338.411 198.231 338.555 198.636 338.555C198.804 338.555 198.956 338.536 199.092 338.499C199.228 338.462 199.351 338.41 199.46 338.343C199.572 338.274 199.705 338.158 199.86 337.995L200.428 338.487C200.223 338.716 200.037 338.882 199.872 338.983C199.709 339.084 199.523 339.162 199.312 339.215C199.101 339.268 198.876 339.295 198.636 339.295ZM203.325 339.291C202.626 339.291 202.065 339.075 201.641 338.643C201.219 338.211 201.009 337.668 201.009 337.015C201.009 336.351 201.225 335.803 201.657 335.371C202.089 334.936 202.645 334.719 203.325 334.719C204.01 334.719 204.569 334.94 205.001 335.383C205.433 335.826 205.649 336.37 205.649 337.015C205.649 337.658 205.437 338.198 205.013 338.635C204.589 339.072 204.026 339.291 203.325 339.291ZM203.325 338.555C203.759 338.555 204.115 338.414 204.393 338.131C204.673 337.848 204.813 337.476 204.813 337.015C204.813 336.564 204.673 336.192 204.393 335.899C204.115 335.603 203.759 335.455 203.325 335.455C202.887 335.455 202.531 335.6 202.257 335.891C201.982 336.179 201.845 336.554 201.845 337.015C201.845 337.476 201.982 337.848 202.257 338.131C202.534 338.414 202.89 338.555 203.325 338.555ZM206.703 339.155V333.207H207.519V339.155H206.703ZM208.883 339.155V333.207H209.699V339.155H208.883ZM213.015 339.291C212.34 339.291 211.795 339.082 211.379 338.663C210.965 338.244 210.759 337.695 210.759 337.015C210.759 336.378 210.959 335.836 211.359 335.391C211.759 334.943 212.301 334.719 212.987 334.719C213.608 334.719 214.104 334.91 214.475 335.291C214.848 335.67 215.035 336.152 215.035 336.739V337.243H211.215V336.615H214.243V336.611C214.229 336.28 214.115 336 213.899 335.771C213.685 335.539 213.381 335.423 212.987 335.423C212.581 335.423 212.245 335.564 211.979 335.847C211.712 336.127 211.579 336.515 211.579 337.011C211.579 337.531 211.716 337.922 211.991 338.183C212.265 338.444 212.62 338.575 213.055 338.575C213.239 338.575 213.403 338.554 213.547 338.511C213.691 338.468 213.827 338.408 213.955 338.331C214.085 338.251 214.231 338.128 214.391 337.963L214.915 338.415C214.733 338.642 214.556 338.812 214.383 338.927C214.212 339.039 214.021 339.127 213.811 339.191C213.6 339.258 213.335 339.291 213.015 339.291ZM217.97 341.051C217.66 341.051 217.394 341.02 217.17 340.959C216.948 340.9 216.75 340.815 216.574 340.703C216.398 340.591 216.252 340.471 216.138 340.343C216.026 340.215 215.97 340.151 215.97 340.151L216.514 339.639C216.514 339.639 216.559 339.688 216.65 339.787C216.74 339.888 216.844 339.982 216.962 340.067C217.082 340.152 217.219 340.22 217.374 340.271C217.528 340.322 217.712 340.347 217.926 340.347C218.39 340.347 218.734 340.228 218.958 339.991C219.184 339.754 219.298 339.439 219.298 339.047V338.299H219.274C219.162 338.526 218.979 338.714 218.726 338.863C218.472 339.012 218.172 339.087 217.826 339.087C217.231 339.087 216.747 338.887 216.374 338.487C216 338.087 215.814 337.556 215.814 336.895C215.814 336.236 216.01 335.71 216.402 335.315C216.794 334.918 217.271 334.719 217.834 334.719C218.21 334.719 218.522 334.802 218.77 334.967C219.018 335.132 219.191 335.311 219.29 335.503H219.474L219.314 335.703V334.855H220.11V339.023C220.11 339.671 219.912 340.171 219.518 340.523C219.126 340.875 218.61 341.051 217.97 341.051ZM217.958 338.383C218.363 338.383 218.695 338.248 218.954 337.979C219.212 337.71 219.342 337.346 219.342 336.887C219.342 336.447 219.214 336.09 218.958 335.815C218.704 335.54 218.379 335.403 217.982 335.403C217.582 335.403 217.259 335.538 217.014 335.807C216.768 336.074 216.646 336.434 216.646 336.887C216.646 337.383 216.771 337.756 217.022 338.007C217.275 338.258 217.587 338.383 217.958 338.383ZM223.421 339.291C222.746 339.291 222.201 339.082 221.785 338.663C221.372 338.244 221.165 337.695 221.165 337.015C221.165 336.378 221.365 335.836 221.765 335.391C222.165 334.943 222.708 334.719 223.393 334.719C224.014 334.719 224.51 334.91 224.881 335.291C225.254 335.67 225.441 336.152 225.441 336.739V337.243H221.621V336.615H224.649V336.611C224.636 336.28 224.521 336 224.305 335.771C224.092 335.539 223.788 335.423 223.393 335.423C222.988 335.423 222.652 335.564 222.385 335.847C222.118 336.127 221.985 336.515 221.985 337.011C221.985 337.531 222.122 337.922 222.397 338.183C222.672 338.444 223.026 338.575 223.461 338.575C223.645 338.575 223.809 338.554 223.953 338.511C224.097 338.468 224.233 338.408 224.361 338.331C224.492 338.251 224.637 338.128 224.797 337.963L225.321 338.415C225.14 338.642 224.962 338.812 224.789 338.927C224.618 339.039 224.428 339.127 224.217 339.191C224.006 339.258 223.741 339.291 223.421 339.291ZM227.968 339.291C227.597 339.291 227.305 339.186 227.092 338.975C226.881 338.762 226.776 338.466 226.776 338.087V333.783H227.588V338.015C227.588 338.191 227.628 338.327 227.708 338.423C227.79 338.516 227.924 338.563 228.108 338.563C228.166 338.563 228.233 338.554 228.308 338.535C228.382 338.516 228.465 338.484 228.556 338.439C228.649 338.391 228.696 338.367 228.696 338.367L228.956 338.987C228.956 338.987 228.9 339.018 228.788 339.079C228.678 339.14 228.554 339.191 228.416 339.231C228.277 339.271 228.128 339.291 227.968 339.291ZM226.016 335.579V334.855H228.756V335.579H226.016ZM231.887 339.291C231.189 339.291 230.627 339.075 230.203 338.643C229.782 338.211 229.571 337.668 229.571 337.015C229.571 336.351 229.787 335.803 230.219 335.371C230.651 334.936 231.207 334.719 231.887 334.719C232.573 334.719 233.131 334.94 233.563 335.383C233.995 335.826 234.211 336.37 234.211 337.015C234.211 337.658 233.999 338.198 233.575 338.635C233.151 339.072 232.589 339.291 231.887 339.291ZM231.887 338.555C232.322 338.555 232.678 338.414 232.955 338.131C233.235 337.848 233.375 337.476 233.375 337.015C233.375 336.564 233.235 336.192 232.955 335.899C232.678 335.603 232.322 335.455 231.887 335.455C231.45 335.455 231.094 335.6 230.819 335.891C230.545 336.179 230.407 336.554 230.407 337.015C230.407 337.476 230.545 337.848 230.819 338.131C231.097 338.414 231.453 338.555 231.887 338.555ZM235.989 339.155L234.633 334.855H235.433L236.241 337.663L236.397 338.231H236.421L236.589 337.663L237.437 334.855H238.169L239.041 337.659L239.205 338.227H239.229L239.377 337.659L240.189 334.855H240.945L239.601 339.155H238.869L237.973 336.371L237.793 335.763H237.769L237.601 336.367L236.729 339.155H235.989ZM241.789 339.155V334.855H242.569V335.607L242.461 335.451H242.593C242.737 335.238 242.939 335.063 243.197 334.927C243.459 334.788 243.761 334.719 244.105 334.719C244.617 334.719 245.009 334.852 245.281 335.119C245.553 335.383 245.689 335.748 245.689 336.215V339.155H244.873V336.407C244.873 336.095 244.796 335.852 244.641 335.679C244.489 335.503 244.232 335.415 243.869 335.415C243.501 335.415 243.199 335.527 242.961 335.751C242.724 335.972 242.605 336.258 242.605 336.607V339.155H241.789Z" fill="#616972"/>
<rect x="94" y="224.493" width="94" height="47.7183" rx="6" fill="#DEE2E6"/>
<path d="M105 241.668C104.26 241.668 103.642 241.41 103.145 240.893C102.648 240.373 102.4 239.688 102.4 238.838C102.4 237.975 102.645 237.285 103.135 236.768C103.625 236.251 104.227 235.993 104.94 235.993C105.363 235.993 105.732 236.085 106.045 236.268C106.362 236.448 106.598 236.668 106.755 236.928H106.79V234.113H108.16V241.493H106.82V240.583L107.02 240.803H106.785C106.608 241.05 106.368 241.256 106.065 241.423C105.762 241.586 105.407 241.668 105 241.668ZM105.32 240.528C105.77 240.528 106.135 240.376 106.415 240.073C106.695 239.766 106.835 239.356 106.835 238.843C106.835 238.33 106.692 237.918 106.405 237.608C106.118 237.295 105.757 237.138 105.32 237.138C104.86 237.138 104.49 237.295 104.21 237.608C103.933 237.921 103.795 238.331 103.795 238.838C103.795 239.341 103.933 239.75 104.21 240.063C104.487 240.373 104.857 240.528 105.32 240.528ZM109.743 241.493V236.163H111.118V241.493H109.743ZM110.443 235.233C110.217 235.233 110.022 235.153 109.858 234.993C109.695 234.83 109.613 234.636 109.613 234.413C109.613 234.183 109.695 233.993 109.858 233.843C110.022 233.69 110.217 233.613 110.443 233.613C110.677 233.613 110.87 233.69 111.023 233.843C111.177 233.993 111.253 234.183 111.253 234.413C111.253 234.636 111.177 234.83 111.023 234.993C110.87 235.153 110.677 235.233 110.443 235.233ZM114.592 241.673C114.202 241.673 113.869 241.625 113.592 241.528C113.319 241.431 113.079 241.3 112.872 241.133C112.669 240.963 112.51 240.793 112.397 240.623C112.287 240.45 112.232 240.363 112.232 240.363L113.127 239.758C113.127 239.758 113.17 239.821 113.257 239.948C113.347 240.075 113.455 240.193 113.582 240.303C113.712 240.41 113.862 240.491 114.032 240.548C114.202 240.601 114.395 240.628 114.612 240.628C114.889 240.628 115.109 240.575 115.272 240.468C115.439 240.358 115.522 240.211 115.522 240.028C115.522 239.838 115.439 239.691 115.272 239.588C115.105 239.485 114.787 239.376 114.317 239.263C113.634 239.093 113.155 238.876 112.882 238.613C112.612 238.346 112.477 237.998 112.477 237.568C112.477 237.095 112.672 236.713 113.062 236.423C113.455 236.13 113.959 235.983 114.572 235.983C114.869 235.983 115.134 236.015 115.367 236.078C115.604 236.138 115.817 236.228 116.007 236.348C116.197 236.468 116.352 236.596 116.472 236.733C116.595 236.866 116.657 236.933 116.657 236.933L115.777 237.583C115.777 237.583 115.735 237.54 115.652 237.453C115.569 237.366 115.472 237.29 115.362 237.223C115.252 237.156 115.132 237.108 115.002 237.078C114.872 237.045 114.727 237.028 114.567 237.028C114.31 237.028 114.105 237.076 113.952 237.173C113.802 237.27 113.727 237.393 113.727 237.543C113.727 237.68 113.792 237.796 113.922 237.893C114.052 237.99 114.414 238.116 115.007 238.273C115.634 238.44 116.089 238.653 116.372 238.913C116.655 239.17 116.797 239.515 116.797 239.948C116.797 240.465 116.589 240.881 116.172 241.198C115.759 241.515 115.232 241.673 114.592 241.673ZM120.466 241.673C119.596 241.673 118.894 241.405 118.361 240.868C117.831 240.328 117.566 239.65 117.566 238.833C117.566 238.016 117.829 237.338 118.356 236.798C118.886 236.255 119.601 235.983 120.501 235.983C120.798 235.983 121.066 236.016 121.306 236.083C121.549 236.15 121.776 236.248 121.986 236.378C122.199 236.508 122.433 236.711 122.686 236.988L121.781 237.783C121.614 237.613 121.471 237.488 121.351 237.408C121.234 237.328 121.106 237.27 120.966 237.233C120.829 237.193 120.673 237.173 120.496 237.173C120.056 237.173 119.689 237.326 119.396 237.633C119.106 237.94 118.961 238.338 118.961 238.828C118.961 239.328 119.109 239.728 119.406 240.028C119.706 240.328 120.069 240.478 120.496 240.478C120.683 240.478 120.853 240.455 121.006 240.408C121.159 240.361 121.298 240.295 121.421 240.208C121.544 240.118 121.688 239.978 121.851 239.788L122.841 240.483C122.601 240.806 122.368 241.045 122.141 241.198C121.918 241.351 121.664 241.468 121.381 241.548C121.098 241.631 120.793 241.673 120.466 241.673ZM125.715 241.668C125.088 241.668 124.606 241.496 124.27 241.153C123.933 240.81 123.765 240.33 123.765 239.713V236.163H125.14V239.408C125.14 239.815 125.231 240.108 125.415 240.288C125.598 240.468 125.87 240.558 126.23 240.558C126.583 240.558 126.88 240.436 127.12 240.193C127.36 239.946 127.48 239.631 127.48 239.248V236.163H128.855V241.493H127.55V240.123L128.18 240.758H127.51C127.346 241.011 127.11 241.226 126.8 241.403C126.49 241.58 126.128 241.668 125.715 241.668ZM132.307 241.673C131.917 241.673 131.583 241.625 131.307 241.528C131.033 241.431 130.793 241.3 130.587 241.133C130.383 240.963 130.225 240.793 130.112 240.623C130.002 240.45 129.947 240.363 129.947 240.363L130.842 239.758C130.842 239.758 130.885 239.821 130.972 239.948C131.062 240.075 131.17 240.193 131.297 240.303C131.427 240.41 131.577 240.491 131.747 240.548C131.917 240.601 132.11 240.628 132.327 240.628C132.603 240.628 132.823 240.575 132.987 240.468C133.153 240.358 133.237 240.211 133.237 240.028C133.237 239.838 133.153 239.691 132.987 239.588C132.82 239.485 132.502 239.376 132.032 239.263C131.348 239.093 130.87 238.876 130.597 238.613C130.327 238.346 130.192 237.998 130.192 237.568C130.192 237.095 130.387 236.713 130.777 236.423C131.17 236.13 131.673 235.983 132.287 235.983C132.583 235.983 132.848 236.015 133.082 236.078C133.318 236.138 133.532 236.228 133.722 236.348C133.912 236.468 134.067 236.596 134.187 236.733C134.31 236.866 134.372 236.933 134.372 236.933L133.492 237.583C133.492 237.583 133.45 237.54 133.367 237.453C133.283 237.366 133.187 237.29 133.077 237.223C132.967 237.156 132.847 237.108 132.717 237.078C132.587 237.045 132.442 237.028 132.282 237.028C132.025 237.028 131.82 237.076 131.667 237.173C131.517 237.27 131.442 237.393 131.442 237.543C131.442 237.68 131.507 237.796 131.637 237.893C131.767 237.99 132.128 238.116 132.722 238.273C133.348 238.44 133.803 238.653 134.087 238.913C134.37 239.17 134.512 239.515 134.512 239.948C134.512 240.465 134.303 240.881 133.887 241.198C133.473 241.515 132.947 241.673 132.307 241.673ZM137.551 241.673C137.161 241.673 136.828 241.625 136.551 241.528C136.278 241.431 136.038 241.3 135.831 241.133C135.628 240.963 135.469 240.793 135.356 240.623C135.246 240.45 135.191 240.363 135.191 240.363L136.086 239.758C136.086 239.758 136.129 239.821 136.216 239.948C136.306 240.075 136.414 240.193 136.541 240.303C136.671 240.41 136.821 240.491 136.991 240.548C137.161 240.601 137.354 240.628 137.571 240.628C137.848 240.628 138.068 240.575 138.231 240.468C138.398 240.358 138.481 240.211 138.481 240.028C138.481 239.838 138.398 239.691 138.231 239.588C138.064 239.485 137.746 239.376 137.276 239.263C136.593 239.093 136.114 238.876 135.841 238.613C135.571 238.346 135.436 237.998 135.436 237.568C135.436 237.095 135.631 236.713 136.021 236.423C136.414 236.13 136.918 235.983 137.531 235.983C137.828 235.983 138.093 236.015 138.326 236.078C138.563 236.138 138.776 236.228 138.966 236.348C139.156 236.468 139.311 236.596 139.431 236.733C139.554 236.866 139.616 236.933 139.616 236.933L138.736 237.583C138.736 237.583 138.694 237.54 138.611 237.453C138.528 237.366 138.431 237.29 138.321 237.223C138.211 237.156 138.091 237.108 137.961 237.078C137.831 237.045 137.686 237.028 137.526 237.028C137.269 237.028 137.064 237.076 136.911 237.173C136.761 237.27 136.686 237.393 136.686 237.543C136.686 237.68 136.751 237.796 136.881 237.893C137.011 237.99 137.373 238.116 137.966 238.273C138.593 238.44 139.048 238.653 139.331 238.913C139.614 239.17 139.756 239.515 139.756 239.948C139.756 240.465 139.548 240.881 139.131 241.198C138.718 241.515 138.191 241.673 137.551 241.673ZM140.925 241.493V236.163H142.3V241.493H140.925ZM141.625 235.233C141.398 235.233 141.203 235.153 141.04 234.993C140.877 234.83 140.795 234.636 140.795 234.413C140.795 234.183 140.877 233.993 141.04 233.843C141.203 233.69 141.398 233.613 141.625 233.613C141.858 233.613 142.052 233.69 142.205 233.843C142.358 233.993 142.435 234.183 142.435 234.413C142.435 234.636 142.358 234.83 142.205 234.993C142.052 235.153 141.858 235.233 141.625 235.233ZM146.484 241.668C145.587 241.668 144.865 241.401 144.319 240.868C143.775 240.331 143.504 239.653 143.504 238.833C143.504 238.006 143.779 237.326 144.329 236.793C144.882 236.256 145.6 235.988 146.484 235.988C147.37 235.988 148.089 236.26 148.639 236.803C149.189 237.343 149.464 238.02 149.464 238.833C149.464 239.646 149.19 240.323 148.644 240.863C148.1 241.4 147.38 241.668 146.484 241.668ZM146.484 240.483C146.95 240.483 147.33 240.331 147.624 240.028C147.917 239.721 148.064 239.323 148.064 238.833C148.064 238.353 147.919 237.956 147.629 237.643C147.339 237.33 146.957 237.173 146.484 237.173C146.004 237.173 145.62 237.328 145.334 237.638C145.047 237.948 144.904 238.346 144.904 238.833C144.904 239.326 145.049 239.725 145.339 240.028C145.629 240.331 146.01 240.483 146.484 240.483ZM150.641 241.493V236.163H151.956V237.113L151.806 236.918H151.991C152.185 236.638 152.445 236.413 152.771 236.243C153.098 236.073 153.466 235.988 153.876 235.988C154.48 235.988 154.951 236.158 155.291 236.498C155.631 236.835 155.801 237.293 155.801 237.873V241.493H154.421V238.233C154.421 237.876 154.335 237.603 154.161 237.413C153.991 237.22 153.718 237.123 153.341 237.123C152.958 237.123 152.641 237.245 152.391 237.488C152.141 237.731 152.016 238.04 152.016 238.413V241.493H150.641Z" fill="#616972"/>
<path d="M104.532 256.389C104.223 256.389 103.956 256.358 103.732 256.297C103.511 256.238 103.312 256.153 103.136 256.041C102.96 255.929 102.815 255.809 102.7 255.681C102.588 255.553 102.532 255.489 102.532 255.489L103.076 254.977C103.076 254.977 103.121 255.026 103.212 255.125C103.303 255.226 103.407 255.32 103.524 255.405C103.644 255.49 103.781 255.558 103.936 255.609C104.091 255.66 104.275 255.685 104.488 255.685C104.952 255.685 105.296 255.566 105.52 255.329C105.747 255.092 105.86 254.777 105.86 254.385V253.637H105.836C105.724 253.864 105.541 254.052 105.288 254.201C105.035 254.35 104.735 254.425 104.388 254.425C103.793 254.425 103.309 254.225 102.936 253.825C102.563 253.425 102.376 252.894 102.376 252.233C102.376 251.574 102.572 251.048 102.964 250.653C103.356 250.256 103.833 250.057 104.396 250.057C104.772 250.057 105.084 250.14 105.332 250.305C105.58 250.47 105.753 250.649 105.852 250.841H106.036L105.876 251.041V250.193H106.672V254.361C106.672 255.009 106.475 255.509 106.08 255.861C105.688 256.213 105.172 256.389 104.532 256.389ZM104.52 253.721C104.925 253.721 105.257 253.586 105.516 253.317C105.775 253.048 105.904 252.684 105.904 252.225C105.904 251.785 105.776 251.428 105.52 251.153C105.267 250.878 104.941 250.741 104.544 250.741C104.144 250.741 103.821 250.876 103.576 251.145C103.331 251.412 103.208 251.772 103.208 252.225C103.208 252.721 103.333 253.094 103.584 253.345C103.837 253.596 104.149 253.721 104.52 253.721ZM110.044 254.629C109.345 254.629 108.784 254.413 108.36 253.981C107.938 253.549 107.728 253.006 107.728 252.353C107.728 251.689 107.944 251.141 108.376 250.709C108.808 250.274 109.364 250.057 110.044 250.057C110.729 250.057 111.288 250.278 111.72 250.721C112.152 251.164 112.368 251.708 112.368 252.353C112.368 252.996 112.156 253.536 111.732 253.973C111.308 254.41 110.745 254.629 110.044 254.629ZM110.044 253.893C110.478 253.893 110.834 253.752 111.112 253.469C111.392 253.186 111.532 252.814 111.532 252.353C111.532 251.902 111.392 251.53 111.112 251.237C110.834 250.941 110.478 250.793 110.044 250.793C109.606 250.793 109.25 250.938 108.976 251.229C108.701 251.517 108.564 251.892 108.564 252.353C108.564 252.814 108.701 253.186 108.976 253.469C109.253 253.752 109.609 253.893 110.044 253.893ZM113.422 254.493V248.545H114.238V254.493H113.422ZM117.406 254.629C116.814 254.629 116.314 254.421 115.906 254.005C115.501 253.589 115.298 253.04 115.298 252.357C115.298 251.65 115.494 251.092 115.886 250.681C116.278 250.27 116.757 250.065 117.322 250.065C117.698 250.065 118.022 250.146 118.294 250.309C118.569 250.472 118.77 250.662 118.898 250.881H118.922V248.545H119.742V254.493H118.942V253.729L119.09 253.889H118.918C118.766 254.097 118.563 254.273 118.31 254.417C118.059 254.558 117.758 254.629 117.406 254.629ZM117.554 253.953C117.962 253.953 118.298 253.813 118.562 253.533C118.826 253.253 118.958 252.865 118.958 252.369C118.958 251.876 118.821 251.481 118.546 251.185C118.274 250.889 117.943 250.741 117.554 250.741C117.133 250.741 116.79 250.889 116.526 251.185C116.262 251.481 116.13 251.872 116.13 252.357C116.13 252.842 116.261 253.23 116.522 253.521C116.783 253.809 117.127 253.953 117.554 253.953ZM121.942 254.493L120.586 250.193H121.386L122.194 253.001L122.35 253.569H122.374L122.542 253.001L123.39 250.193H124.122L124.994 252.997L125.158 253.565H125.182L125.33 252.997L126.142 250.193H126.898L125.554 254.493H124.822L123.926 251.709L123.746 251.101H123.722L123.554 251.705L122.682 254.493H121.942ZM127.751 254.493V250.193H128.567V254.493H127.751ZM128.167 249.349C128.02 249.349 127.893 249.296 127.787 249.189C127.68 249.082 127.627 248.957 127.627 248.813C127.627 248.664 127.68 248.54 127.787 248.441C127.893 248.342 128.02 248.293 128.167 248.293C128.319 248.293 128.444 248.342 128.543 248.441C128.641 248.54 128.691 248.665 128.691 248.817C128.691 248.958 128.641 249.082 128.543 249.189C128.444 249.296 128.319 249.349 128.167 249.349ZM129.938 254.493V250.193H130.718V250.945L130.61 250.789H130.742C130.886 250.576 131.087 250.401 131.346 250.265C131.607 250.126 131.91 250.057 132.254 250.057C132.766 250.057 133.158 250.19 133.43 250.457C133.702 250.721 133.838 251.086 133.838 251.553V254.493H133.022V251.745C133.022 251.433 132.944 251.19 132.79 251.017C132.638 250.841 132.38 250.753 132.018 250.753C131.65 250.753 131.347 250.865 131.11 251.089C130.872 251.31 130.754 251.596 130.754 251.945V254.493H129.938ZM138.732 254.633C138.428 254.633 138.168 254.592 137.952 254.509C137.736 254.429 137.55 254.317 137.392 254.173C137.238 254.029 137.122 253.886 137.044 253.745C136.97 253.604 136.932 253.533 136.932 253.533L137.536 253.189C137.536 253.189 137.57 253.245 137.636 253.357C137.703 253.466 137.786 253.568 137.884 253.661C137.983 253.754 138.104 253.828 138.248 253.881C138.392 253.932 138.555 253.957 138.736 253.957C139.006 253.957 139.222 253.901 139.384 253.789C139.55 253.674 139.632 253.526 139.632 253.345C139.632 253.148 139.554 252.996 139.396 252.889C139.239 252.782 138.98 252.684 138.62 252.593C138.042 252.444 137.65 252.27 137.444 252.073C137.239 251.873 137.136 251.601 137.136 251.257C137.136 250.902 137.28 250.613 137.568 250.389C137.859 250.165 138.231 250.053 138.684 250.053C138.919 250.053 139.126 250.08 139.304 250.133C139.483 250.184 139.644 250.258 139.788 250.357C139.935 250.456 140.05 250.558 140.132 250.665C140.218 250.769 140.26 250.821 140.26 250.821L139.704 251.209C139.704 251.209 139.67 251.172 139.6 251.097C139.534 251.022 139.456 250.957 139.368 250.901C139.283 250.842 139.186 250.8 139.076 250.773C138.97 250.744 138.842 250.729 138.692 250.729C138.439 250.729 138.24 250.778 138.096 250.877C137.952 250.976 137.88 251.098 137.88 251.245C137.88 251.362 137.93 251.47 138.028 251.569C138.127 251.665 138.448 251.79 138.992 251.945C139.494 252.086 139.854 252.26 140.072 252.465C140.291 252.67 140.4 252.945 140.4 253.289C140.4 253.694 140.243 254.02 139.928 254.265C139.616 254.51 139.218 254.633 138.732 254.633ZM141.414 254.493V250.197H142.194V250.901L142.126 250.785H142.218C142.365 250.572 142.564 250.397 142.814 250.261C143.068 250.125 143.348 250.057 143.654 250.057C144.009 250.057 144.305 250.132 144.542 250.281C144.782 250.43 144.942 250.65 145.022 250.941C145.158 250.674 145.364 250.461 145.638 250.301C145.913 250.138 146.222 250.057 146.566 250.057C147.062 250.057 147.438 250.192 147.694 250.461C147.95 250.73 148.078 251.1 148.078 251.569V254.493H147.262V251.749C147.262 251.416 147.178 251.168 147.01 251.005C146.845 250.84 146.605 250.757 146.29 250.757C145.984 250.757 145.717 250.868 145.49 251.089C145.266 251.31 145.154 251.602 145.154 251.965V254.493H144.338V251.741C144.338 251.397 144.252 251.146 144.078 250.989C143.905 250.832 143.666 250.753 143.362 250.753C143.053 250.753 142.786 250.868 142.562 251.097C142.341 251.326 142.23 251.6 142.23 251.917V254.493H141.414ZM149.391 254.493V250.193H150.207V254.493H149.391ZM149.807 249.349C149.66 249.349 149.534 249.296 149.427 249.189C149.32 249.082 149.267 248.957 149.267 248.813C149.267 248.664 149.32 248.54 149.427 248.441C149.534 248.342 149.66 248.293 149.807 248.293C149.959 248.293 150.084 248.342 150.183 248.441C150.282 248.54 150.331 248.665 150.331 248.817C150.331 248.958 150.282 249.082 150.183 249.189C150.084 249.296 149.959 249.349 149.807 249.349ZM153.022 254.629C152.652 254.629 152.36 254.524 152.146 254.313C151.936 254.1 151.83 253.804 151.83 253.425V249.121H152.642V253.353C152.642 253.529 152.682 253.665 152.762 253.761C152.845 253.854 152.978 253.901 153.162 253.901C153.221 253.901 153.288 253.892 153.362 253.873C153.437 253.854 153.52 253.822 153.61 253.777C153.704 253.729 153.75 253.705 153.75 253.705L154.01 254.325C154.01 254.325 153.954 254.356 153.842 254.417C153.733 254.478 153.609 254.529 153.47 254.569C153.332 254.609 153.182 254.629 153.022 254.629ZM151.07 250.917V250.193H153.81V250.917H151.07ZM154.93 254.493V248.545H155.746V250.765H155.77C155.906 250.568 156.099 250.401 156.35 250.265C156.601 250.126 156.909 250.057 157.274 250.057C157.775 250.057 158.159 250.189 158.426 250.453C158.695 250.714 158.83 251.08 158.83 251.549V254.493H158.014V251.741C158.014 251.397 157.93 251.146 157.762 250.989C157.594 250.832 157.343 250.753 157.01 250.753C156.631 250.753 156.326 250.868 156.094 251.097C155.862 251.326 155.746 251.605 155.746 251.933V254.493H154.93Z" fill="#616972"/>
<g filter="url(#filter0_d_922_6187)">
<rect x="94" y="104.113" width="94" height="88.9296" rx="6" fill="white" shape-rendering="crispEdges"/>
<rect x="95" y="105.113" width="92" height="86.9296" rx="5" stroke="#FB7E32" stroke-opacity="0.6" stroke-width="2" shape-rendering="crispEdges"/>
<path d="M106.403 125.358C105.25 125.358 104.31 124.989 103.582 124.252C102.859 123.514 102.497 122.581 102.497 121.452C102.497 120.318 102.859 119.384 103.582 118.652C104.305 117.919 105.257 117.553 106.438 117.553C106.891 117.553 107.301 117.611 107.67 117.728C108.043 117.84 108.386 118.017 108.699 118.26C109.016 118.498 109.324 118.85 109.623 119.317L108.209 120.178C108.013 119.902 107.833 119.697 107.67 119.562C107.511 119.426 107.329 119.328 107.124 119.268C106.923 119.202 106.697 119.17 106.445 119.17C105.862 119.17 105.372 119.38 104.975 119.8C104.578 120.22 104.38 120.768 104.38 121.445C104.38 122.126 104.578 122.679 104.975 123.104C105.376 123.524 105.864 123.734 106.438 123.734C106.699 123.734 106.937 123.696 107.152 123.622C107.371 123.547 107.563 123.444 107.726 123.314C107.889 123.183 108.074 122.964 108.279 122.656L109.756 123.419C109.457 123.937 109.149 124.322 108.832 124.574C108.519 124.826 108.158 125.019 107.747 125.155C107.341 125.29 106.893 125.358 106.403 125.358ZM111.026 125.113V114.935H112.916V125.113H111.026ZM117.059 125.351C116.261 125.351 115.612 125.131 115.113 124.693C114.613 124.254 114.364 123.664 114.364 122.922C114.364 122.156 114.648 121.552 115.218 121.109C115.792 120.665 116.538 120.444 117.458 120.444C117.859 120.444 118.235 120.488 118.585 120.577C118.935 120.661 119.236 120.773 119.488 120.913V120.479C119.488 120.007 119.329 119.646 119.012 119.394C118.694 119.137 118.277 119.009 117.759 119.009C117.465 119.009 117.21 119.039 116.996 119.1C116.786 119.16 116.59 119.24 116.408 119.338C116.23 119.431 116.058 119.545 115.89 119.681C115.722 119.811 115.638 119.877 115.638 119.877L114.679 118.813C114.679 118.813 114.793 118.722 115.022 118.54C115.255 118.353 115.516 118.183 115.806 118.029C116.095 117.875 116.412 117.758 116.758 117.679C117.108 117.595 117.504 117.553 117.948 117.553C118.998 117.553 119.824 117.812 120.426 118.33C121.028 118.843 121.329 119.562 121.329 120.486V125.113H119.53V123.615L119.915 124.175H119.481C119.257 124.511 118.932 124.791 118.508 125.015C118.088 125.239 117.605 125.351 117.059 125.351ZM117.584 124.028C118.134 124.028 118.592 123.839 118.956 123.461C119.32 123.083 119.504 122.611 119.509 122.047V122.019C119.299 121.865 119.047 121.746 118.753 121.662C118.459 121.573 118.153 121.529 117.836 121.529C117.332 121.529 116.93 121.638 116.632 121.858C116.333 122.077 116.184 122.392 116.184 122.803C116.184 123.19 116.31 123.491 116.562 123.706C116.818 123.92 117.159 124.028 117.584 124.028ZM125.812 125.351C124.953 125.351 124.288 125.11 123.817 124.63C123.345 124.149 123.11 123.47 123.11 122.593V117.791H125V122.236C125 122.782 125.123 123.188 125.371 123.454C125.623 123.72 125.989 123.853 126.47 123.853C126.95 123.853 127.354 123.678 127.681 123.328C128.012 122.978 128.178 122.539 128.178 122.012V117.791H130.068V125.113H128.276V123.244L129.137 124.112H128.227C128.012 124.466 127.692 124.763 127.268 125.001C126.843 125.234 126.358 125.351 125.812 125.351ZM135.036 125.351C134.033 125.351 133.197 124.996 132.53 124.287C131.867 123.573 131.536 122.632 131.536 121.466C131.536 120.299 131.87 119.356 132.537 118.638C133.204 117.919 134.035 117.56 135.029 117.56C135.566 117.56 136.044 117.676 136.464 117.91C136.889 118.138 137.206 118.428 137.416 118.778H137.465V114.935H139.341V125.113H137.514V123.867L137.745 124.161H137.465C137.236 124.511 136.91 124.798 136.485 125.022C136.06 125.241 135.577 125.351 135.036 125.351ZM135.47 123.769C136.067 123.769 136.557 123.556 136.94 123.132C137.327 122.707 137.521 122.152 137.521 121.466C137.521 120.775 137.325 120.217 136.933 119.793C136.541 119.363 136.053 119.149 135.47 119.149C134.873 119.149 134.38 119.363 133.993 119.793C133.606 120.217 133.412 120.773 133.412 121.459C133.412 122.14 133.603 122.695 133.986 123.125C134.369 123.554 134.863 123.769 135.47 123.769ZM144.698 125.351C143.536 125.351 142.595 124.989 141.877 124.266C141.163 123.542 140.806 122.607 140.806 121.459C140.806 120.357 141.156 119.431 141.856 118.68C142.56 117.928 143.491 117.553 144.649 117.553C145.717 117.553 146.59 117.882 147.267 118.54C147.943 119.198 148.282 120.026 148.282 121.025V121.879H141.779V120.773H146.511C146.478 120.278 146.298 119.87 145.972 119.548C145.645 119.221 145.204 119.058 144.649 119.058C144.056 119.058 143.573 119.268 143.2 119.688C142.831 120.103 142.647 120.682 142.647 121.424C142.647 122.198 142.852 122.8 143.263 123.23C143.678 123.654 144.21 123.867 144.859 123.867C145.143 123.867 145.398 123.829 145.622 123.755C145.846 123.68 146.051 123.58 146.238 123.454C146.429 123.323 146.644 123.115 146.882 122.831L148.051 123.734C147.738 124.163 147.423 124.485 147.106 124.7C146.793 124.914 146.448 125.075 146.07 125.183C145.696 125.295 145.239 125.351 144.698 125.351ZM102.973 142.113V131.935H104.849V135.834H104.898C105.131 135.456 105.46 135.148 105.885 134.91C106.31 134.672 106.793 134.553 107.334 134.553C108.16 134.553 108.806 134.795 109.273 135.281C109.74 135.761 109.973 136.412 109.973 137.234V142.113H108.083V137.682C108.083 137.164 107.957 136.774 107.705 136.513C107.453 136.247 107.089 136.114 106.613 136.114C106.114 136.114 105.696 136.296 105.36 136.66C105.029 137.019 104.863 137.451 104.863 137.955V142.113H102.973ZM114.037 142.351C113.239 142.351 112.59 142.131 112.091 141.693C111.592 141.254 111.342 140.664 111.342 139.922C111.342 139.156 111.627 138.552 112.196 138.109C112.77 137.665 113.517 137.444 114.436 137.444C114.837 137.444 115.213 137.488 115.563 137.577C115.913 137.661 116.214 137.773 116.466 137.913V137.479C116.466 137.007 116.307 136.646 115.99 136.394C115.673 136.137 115.255 136.009 114.737 136.009C114.443 136.009 114.189 136.039 113.974 136.1C113.764 136.16 113.568 136.24 113.386 136.338C113.209 136.431 113.036 136.545 112.868 136.681C112.7 136.811 112.616 136.877 112.616 136.877L111.657 135.813C111.657 135.813 111.771 135.722 112 135.54C112.233 135.353 112.495 135.183 112.784 135.029C113.073 134.875 113.391 134.758 113.736 134.679C114.086 134.595 114.483 134.553 114.926 134.553C115.976 134.553 116.802 134.812 117.404 135.33C118.006 135.843 118.307 136.562 118.307 137.486V142.113H116.508V140.615L116.893 141.175H116.459C116.235 141.511 115.911 141.791 115.486 142.015C115.066 142.239 114.583 142.351 114.037 142.351ZM114.562 141.028C115.113 141.028 115.57 140.839 115.934 140.461C116.298 140.083 116.482 139.611 116.487 139.047V139.019C116.277 138.865 116.025 138.746 115.731 138.662C115.437 138.573 115.131 138.529 114.814 138.529C114.31 138.529 113.909 138.638 113.61 138.858C113.311 139.077 113.162 139.392 113.162 139.803C113.162 140.19 113.288 140.491 113.54 140.706C113.797 140.92 114.137 141.028 114.562 141.028ZM123.602 142.358C122.45 142.358 121.509 141.989 120.781 141.252C120.058 140.514 119.696 139.581 119.696 138.452C119.696 137.318 120.058 136.384 120.781 135.652C121.505 134.919 122.457 134.553 123.637 134.553C124.09 134.553 124.501 134.611 124.869 134.728C125.243 134.84 125.586 135.017 125.898 135.26C126.216 135.498 126.524 135.85 126.822 136.317L125.408 137.178C125.212 136.902 125.033 136.697 124.869 136.562C124.711 136.426 124.529 136.328 124.323 136.268C124.123 136.202 123.896 136.17 123.644 136.17C123.061 136.17 122.571 136.38 122.174 136.8C121.778 137.22 121.579 137.768 121.579 138.445C121.579 139.126 121.778 139.679 122.174 140.104C122.576 140.524 123.063 140.734 123.637 140.734C123.899 140.734 124.137 140.696 124.351 140.622C124.571 140.547 124.762 140.444 124.925 140.314C125.089 140.183 125.273 139.964 125.478 139.656L126.955 140.419C126.657 140.937 126.349 141.322 126.031 141.574C125.719 141.826 125.357 142.019 124.946 142.155C124.54 142.29 124.092 142.358 123.602 142.358ZM129.443 140.587V138.34L132.852 134.791H135.197L129.443 140.587ZM128.225 142.113V131.935H130.115V142.113H128.225ZM133.167 142.113L130.752 138.333L132.047 137.017L135.414 142.113H133.167ZM138.469 142.351C137.671 142.351 137.022 142.131 136.523 141.693C136.023 141.254 135.774 140.664 135.774 139.922C135.774 139.156 136.058 138.552 136.628 138.109C137.202 137.665 137.948 137.444 138.868 137.444C139.269 137.444 139.645 137.488 139.995 137.577C140.345 137.661 140.646 137.773 140.898 137.913V137.479C140.898 137.007 140.739 136.646 140.422 136.394C140.104 136.137 139.687 136.009 139.169 136.009C138.875 136.009 138.62 136.039 138.406 136.1C138.196 136.16 138 136.24 137.818 136.338C137.64 136.431 137.468 136.545 137.3 136.681C137.132 136.811 137.048 136.877 137.048 136.877L136.089 135.813C136.089 135.813 136.203 135.722 136.432 135.54C136.665 135.353 136.926 135.183 137.216 135.029C137.505 134.875 137.822 134.758 138.168 134.679C138.518 134.595 138.914 134.553 139.358 134.553C140.408 134.553 141.234 134.812 141.836 135.33C142.438 135.843 142.739 136.562 142.739 137.486V142.113H140.94V140.615L141.325 141.175H140.891C140.667 141.511 140.342 141.791 139.918 142.015C139.498 142.239 139.015 142.351 138.469 142.351ZM138.994 141.028C139.544 141.028 140.002 140.839 140.366 140.461C140.73 140.083 140.914 139.611 140.919 139.047V139.019C140.709 138.865 140.457 138.746 140.163 138.662C139.869 138.573 139.563 138.529 139.246 138.529C138.742 138.529 138.34 138.638 138.042 138.858C137.743 139.077 137.594 139.392 137.594 139.803C137.594 140.19 137.72 140.491 137.972 140.706C138.228 140.92 138.569 141.028 138.994 141.028ZM147.303 142.351C146.584 142.351 146.017 142.155 145.602 141.763C145.191 141.371 144.986 140.794 144.986 140.034V132.859H146.876V139.789C146.876 140.134 146.948 140.391 147.093 140.559C147.237 140.727 147.461 140.811 147.765 140.811C147.863 140.811 147.965 140.799 148.073 140.776C148.18 140.752 148.306 140.713 148.451 140.657C148.6 140.596 148.675 140.566 148.675 140.566L148.871 142.001C148.871 142.001 148.78 142.038 148.598 142.113C148.42 142.183 148.227 142.239 148.017 142.281C147.811 142.327 147.573 142.351 147.303 142.351ZM143.782 136.296V134.791H148.703V136.296H143.782ZM150.305 142.113V131.935H152.181V135.834H152.23C152.463 135.456 152.792 135.148 153.217 134.91C153.642 134.672 154.125 134.553 154.666 134.553C155.492 134.553 156.138 134.795 156.605 135.281C157.072 135.761 157.305 136.412 157.305 137.234V142.113H155.415V137.682C155.415 137.164 155.289 136.774 155.037 136.513C154.785 136.247 154.421 136.114 153.945 136.114C153.446 136.114 153.028 136.296 152.692 136.66C152.361 137.019 152.195 137.451 152.195 137.955V142.113H150.305ZM162.713 142.351C161.528 142.351 160.562 141.984 159.815 141.252C159.073 140.514 158.702 139.583 158.702 138.459C158.702 137.32 159.075 136.384 159.822 135.652C160.573 134.919 161.537 134.553 162.713 134.553C163.889 134.553 164.853 134.924 165.604 135.666C166.355 136.403 166.731 137.334 166.731 138.459C166.731 139.579 166.358 140.507 165.611 141.245C164.869 141.982 163.903 142.351 162.713 142.351ZM162.713 140.734C163.334 140.734 163.842 140.524 164.239 140.104C164.64 139.679 164.841 139.131 164.841 138.459C164.841 137.787 164.64 137.238 164.239 136.814C163.842 136.384 163.334 136.17 162.713 136.17C162.088 136.17 161.577 136.382 161.18 136.807C160.783 137.231 160.585 137.782 160.585 138.459C160.585 139.131 160.783 139.679 161.18 140.104C161.577 140.524 162.088 140.734 162.713 140.734ZM168.202 142.113V134.791H170.008V136.107L169.805 135.848H170.057C170.304 135.456 170.652 135.143 171.1 134.91C171.548 134.672 172.033 134.553 172.556 134.553C173.382 134.553 174.028 134.793 174.495 135.274C174.966 135.754 175.202 136.408 175.202 137.234V142.113H173.312V137.682C173.312 137.173 173.188 136.786 172.941 136.52C172.698 136.254 172.327 136.121 171.828 136.121C171.328 136.121 170.913 136.296 170.582 136.646C170.255 136.996 170.092 137.427 170.092 137.941V142.113H168.202Z" fill="#EB7128"/>
<path d="M105.383 162.703C104.983 162.703 104.631 162.659 104.327 162.571C104.026 162.487 103.755 162.362 103.513 162.197C103.274 162.032 103.082 161.854 102.935 161.664C102.788 161.477 102.715 161.383 102.715 161.383L103.48 160.762C103.48 160.762 103.54 160.835 103.661 160.982C103.782 161.132 103.921 161.268 104.079 161.389C104.24 161.51 104.424 161.603 104.629 161.669C104.838 161.735 105.076 161.768 105.344 161.768C105.964 161.768 106.428 161.603 106.736 161.273C107.044 160.947 107.198 160.501 107.198 159.937V159.029H107.165C107 159.341 106.745 159.594 106.4 159.788C106.059 159.983 105.661 160.08 105.207 160.08C104.411 160.08 103.756 159.807 103.243 159.26C102.733 158.714 102.479 157.988 102.479 157.082C102.479 156.18 102.743 155.46 103.271 154.921C103.802 154.378 104.449 154.107 105.212 154.107C105.696 154.107 106.109 154.213 106.45 154.426C106.794 154.638 107.042 154.882 107.192 155.157H107.445L107.225 155.432V154.294H108.259V159.92C108.259 160.808 107.997 161.493 107.473 161.977C106.948 162.461 106.252 162.703 105.383 162.703ZM105.372 159.15C105.922 159.15 106.373 158.963 106.725 158.589C107.077 158.212 107.253 157.706 107.253 157.071C107.253 156.455 107.078 155.96 106.73 155.586C106.382 155.209 105.936 155.02 105.394 155.02C104.851 155.02 104.409 155.205 104.068 155.575C103.727 155.946 103.557 156.444 103.557 157.071C103.557 157.753 103.729 158.27 104.074 158.622C104.422 158.974 104.855 159.15 105.372 159.15ZM111.74 160.294C111.113 160.294 110.596 160.118 110.189 159.766C109.782 159.414 109.579 158.927 109.579 158.303C109.579 157.687 109.8 157.2 110.244 156.84C110.688 156.481 111.263 156.301 111.971 156.301C112.323 156.301 112.646 156.342 112.939 156.422C113.236 156.503 113.495 156.611 113.715 156.747V156.367C113.715 155.935 113.572 155.606 113.286 155.383C113 155.155 112.635 155.042 112.191 155.042C111.953 155.042 111.744 155.069 111.564 155.124C111.388 155.176 111.236 155.238 111.108 155.311C110.983 155.385 110.847 155.48 110.701 155.597C110.558 155.715 110.486 155.773 110.486 155.773L109.843 155.113C109.843 155.113 109.921 155.044 110.079 154.904C110.24 154.761 110.427 154.627 110.64 154.503C110.856 154.374 111.089 154.275 111.339 154.206C111.592 154.136 111.901 154.101 112.268 154.101C113.005 154.101 113.605 154.303 114.067 154.706C114.529 155.106 114.76 155.658 114.76 156.362V160.113H113.748V158.969L113.968 159.321H113.715C113.546 159.585 113.291 159.814 112.95 160.008C112.609 160.199 112.206 160.294 111.74 160.294ZM111.96 159.42C112.444 159.42 112.86 159.247 113.209 158.903C113.557 158.554 113.731 158.147 113.731 157.682V157.649C113.544 157.476 113.309 157.344 113.027 157.253C112.745 157.161 112.457 157.115 112.164 157.115C111.694 157.115 111.326 157.218 111.058 157.423C110.794 157.625 110.662 157.911 110.662 158.281C110.662 158.633 110.778 158.912 111.009 159.117C111.24 159.319 111.557 159.42 111.96 159.42ZM118.358 160.294C117.863 160.294 117.471 160.151 117.181 159.865C116.895 159.576 116.752 159.178 116.752 158.672V152.787H117.819V158.534C117.819 158.795 117.876 158.994 117.99 159.134C118.103 159.269 118.287 159.337 118.54 159.337C118.613 159.337 118.696 159.326 118.787 159.304C118.883 159.282 118.991 159.244 119.112 159.189C119.236 159.134 119.299 159.106 119.299 159.106L119.552 159.959C119.552 159.959 119.484 159.994 119.348 160.063C119.213 160.133 119.062 160.188 118.897 160.228C118.732 160.272 118.553 160.294 118.358 160.294ZM115.729 155.24V154.294H119.354V155.24H115.729ZM123.389 160.294C122.494 160.294 121.768 160.01 121.211 159.442C120.654 158.87 120.375 158.125 120.375 157.209C120.375 156.34 120.644 155.606 121.183 155.009C121.722 154.407 122.439 154.107 123.334 154.107C124.177 154.107 124.85 154.363 125.352 154.877C125.858 155.386 126.111 156.032 126.111 156.813V157.484H120.98V156.648H125.055V156.642C125.033 156.195 124.874 155.817 124.577 155.509C124.28 155.198 123.866 155.042 123.334 155.042C122.788 155.042 122.337 155.234 121.981 155.619C121.625 156.004 121.447 156.532 121.447 157.203C121.447 157.9 121.634 158.433 122.008 158.804C122.382 159.17 122.859 159.354 123.438 159.354C123.695 159.354 123.919 159.323 124.109 159.26C124.304 159.198 124.485 159.11 124.654 158.996C124.823 158.883 125.011 158.705 125.22 158.463L125.957 159.013C125.726 159.35 125.492 159.603 125.253 159.772C125.015 159.937 124.751 160.065 124.461 160.157C124.172 160.248 123.814 160.294 123.389 160.294ZM129.421 160.3C129.025 160.3 128.68 160.247 128.387 160.14C128.097 160.034 127.844 159.884 127.628 159.689C127.411 159.495 127.248 159.297 127.138 159.095C127.032 158.89 126.979 158.787 126.979 158.787L127.815 158.347C127.815 158.347 127.86 158.426 127.952 158.584C128.044 158.738 128.157 158.879 128.293 159.007C128.432 159.132 128.597 159.229 128.788 159.299C128.979 159.368 129.199 159.403 129.448 159.403C129.815 159.403 130.11 159.328 130.334 159.178C130.561 159.024 130.675 158.817 130.675 158.556C130.675 158.3 130.572 158.102 130.367 157.962C130.161 157.819 129.802 157.685 129.289 157.561C128.511 157.366 127.974 157.132 127.677 156.857C127.384 156.578 127.237 156.206 127.237 155.74C127.237 155.264 127.437 154.871 127.837 154.563C128.24 154.255 128.748 154.101 129.36 154.101C129.683 154.101 129.967 154.138 130.213 154.211C130.458 154.285 130.682 154.393 130.884 154.536C131.085 154.675 131.241 154.822 131.351 154.976C131.461 155.13 131.516 155.207 131.516 155.207L130.741 155.691C130.741 155.691 130.695 155.638 130.603 155.531C130.511 155.421 130.405 155.326 130.284 155.245C130.167 155.165 130.033 155.104 129.883 155.064C129.736 155.023 129.562 155.003 129.36 155.003C129.015 155.003 128.742 155.073 128.541 155.212C128.339 155.352 128.238 155.52 128.238 155.718C128.238 155.894 128.308 156.05 128.447 156.186C128.59 156.321 129.017 156.486 129.729 156.681C130.44 156.868 130.946 157.104 131.247 157.39C131.547 157.673 131.698 158.037 131.698 158.485C131.698 159.031 131.483 159.471 131.054 159.805C130.625 160.135 130.081 160.3 129.421 160.3ZM135.821 160.113V152.028H136.888V155.086H136.921C137.097 154.811 137.353 154.58 137.691 154.393C138.032 154.202 138.435 154.107 138.901 154.107C139.583 154.107 140.107 154.292 140.474 154.662C140.84 155.033 141.024 155.546 141.024 156.202V160.113H139.957V156.428C139.957 155.955 139.839 155.605 139.605 155.377C139.374 155.146 139.033 155.031 138.582 155.031C138.087 155.031 137.68 155.198 137.361 155.531C137.045 155.861 136.888 156.254 136.888 156.708V160.113H135.821ZM144.429 160.294C143.802 160.294 143.285 160.118 142.878 159.766C142.471 159.414 142.267 158.927 142.267 158.303C142.267 157.687 142.489 157.2 142.933 156.84C143.376 156.481 143.952 156.301 144.66 156.301C145.012 156.301 145.334 156.342 145.628 156.422C145.925 156.503 146.183 156.611 146.403 156.747V156.367C146.403 155.935 146.26 155.606 145.974 155.383C145.688 155.155 145.323 155.042 144.88 155.042C144.641 155.042 144.432 155.069 144.253 155.124C144.077 155.176 143.924 155.238 143.796 155.311C143.671 155.385 143.536 155.48 143.389 155.597C143.246 155.715 143.175 155.773 143.175 155.773L142.531 155.113C142.531 155.113 142.61 155.044 142.768 154.904C142.929 154.761 143.116 154.627 143.329 154.503C143.545 154.374 143.778 154.275 144.027 154.206C144.28 154.136 144.59 154.101 144.957 154.101C145.694 154.101 146.293 154.303 146.755 154.706C147.217 155.106 147.448 155.658 147.448 156.362V160.113H146.436V158.969L146.656 159.321H146.403C146.234 159.585 145.98 159.814 145.639 160.008C145.298 160.199 144.894 160.294 144.429 160.294ZM144.649 159.42C145.133 159.42 145.549 159.247 145.897 158.903C146.245 158.554 146.42 158.147 146.42 157.682V157.649C146.233 157.476 145.998 157.344 145.716 157.253C145.433 157.161 145.145 157.115 144.852 157.115C144.383 157.115 144.014 157.218 143.747 157.423C143.483 157.625 143.351 157.911 143.351 158.281C143.351 158.633 143.466 158.912 143.697 159.117C143.928 159.319 144.245 159.42 144.649 159.42ZM149.109 160.113V152.028H150.176V160.113H149.109ZM151.902 160.113V152.028H152.969V160.113H151.902Z" fill="#EB7128"/>
</g>
<defs>
<filter id="filter0_d_922_6187" x="82" y="94.1127" width="118" height="112.93" filterUnits="userSpaceOnUse" color-interpolation-filters="sRGB">
<feFlood flood-opacity="0" result="BackgroundImageFix"/>
<feColorMatrix in="SourceAlpha" type="matrix" values="0 0 0 0 0 0 0 0 0 0 0 0 0 0 0 0 0 0 127 0" result="hardAlpha"/>
<feOffset dy="2"/>
<feGaussianBlur stdDeviation="6"/>
<feComposite in2="hardAlpha" operator="out"/>
<feColorMatrix type="matrix" values="0 0 0 0 0.984314 0 0 0 0 0.490196 0 0 0 0 0.196078 0 0 0 0.5 0"/>
<feBlend mode="normal" in2="BackgroundImageFix" result="effect1_dropShadow_922_6187"/>
<feBlend mode="normal" in="SourceGraphic" in2="effect1_dropShadow_922_6187" result="shape"/>
</filter>
</defs>
</svg>
