<svg width="626" height="402" viewBox="0 0 626 402" fill="none" xmlns="http://www.w3.org/2000/svg">
<g filter="url(#filter0_dd_841_4590)">
<path d="M620 27.8057C609.006 28.0553 600.165 37.6382 600.165 48.1504C600.165 58.6624 609.006 67.2092 620 67.4316V90.0684C609.006 90.2908 600.165 98.8384 600.165 109.351C600.165 119.863 609.006 128.408 620 128.631V151.268C609.006 151.49 600.165 160.038 600.165 170.55C600.165 181.062 609.006 189.609 620 189.831V212.468C609.006 212.69 600.165 221.238 600.165 231.75C600.165 242.262 609.006 250.809 620 251.031V273.667C608.972 273.853 600.092 282.415 600.092 292.95C600.092 303.485 608.972 312.046 620 312.232V334.867C608.972 335.053 600.092 343.615 600.092 354.15C600.092 364.686 608.972 373.308 620 373.495V393H592.213C591.747 382.708 582.858 374.5 571.959 374.5C561.06 374.5 552.168 382.708 551.702 393H531.811C531.344 382.708 522.455 374.5 511.557 374.5C500.658 374.5 491.766 382.708 491.3 393H467.437C466.97 382.708 458.082 374.5 447.183 374.5C436.284 374.5 427.395 382.708 426.929 393H403.065C402.599 382.708 393.71 374.5 382.812 374.5C371.913 374.5 363.024 382.708 362.558 393H338.694C338.228 382.708 329.339 374.5 318.44 374.5C307.542 374.5 298.653 382.708 298.187 393H274.323C273.857 382.708 264.968 374.5 254.069 374.5C243.17 374.5 234.282 382.708 233.815 393H209.952C209.486 382.708 200.597 374.5 189.698 374.5C178.799 374.5 169.911 382.708 169.444 393H145.581C145.115 382.708 136.226 374.5 125.327 374.5C114.428 374.5 105.539 382.708 105.073 393H81.21C80.7438 382.708 71.8548 374.5 60.9561 374.5C50.0572 374.5 41.1683 382.708 40.7021 393H6V369.868C16.7802 369.419 25.376 360.937 25.376 350.538C25.3758 340.139 16.7801 331.657 6 331.208V308.468C16.78 308.019 25.3758 299.538 25.376 289.139C25.376 278.739 16.7802 270.257 6 269.808V247.07C16.8142 246.657 25.4482 238.161 25.4482 227.738C25.4482 217.316 16.8142 208.819 6 208.405V185.67C16.8141 185.256 25.448 176.761 25.4482 166.339C25.4482 155.916 16.8142 147.42 6 147.006V124.271C16.8142 123.857 25.4482 115.361 25.4482 104.938C25.4482 94.5159 16.8142 86.0192 6 85.6055V62.8701C16.8142 62.4564 25.4482 53.9607 25.4482 43.5381C25.448 33.1157 16.8141 24.6188 6 24.2051V3H40.6836C40.7681 13.6177 49.8112 22.2002 60.9561 22.2002C72.1008 22.2 81.1441 13.6175 81.2285 3H105.055C105.139 13.6177 114.182 22.2002 125.327 22.2002C136.472 22.2001 145.515 13.6176 145.6 3H169.426C169.51 13.6177 178.553 22.2002 189.698 22.2002C200.843 22.2001 209.886 13.6176 209.971 3H233.797C233.881 13.6177 242.924 22.2002 254.069 22.2002C265.214 22.2001 274.257 13.6176 274.342 3H298.168C298.252 13.6176 307.296 22.2002 318.44 22.2002C329.585 22.2002 338.628 13.6177 338.713 3H362.539C362.624 13.6176 371.667 22.2001 382.812 22.2002C393.956 22.2002 403 13.6177 403.084 3H426.91C426.995 13.6176 436.038 22.2 447.183 22.2002C458.328 22.2002 467.372 13.6177 467.456 3H491.281C491.366 13.6177 500.412 22.2002 511.557 22.2002C522.701 22.2001 531.745 13.6176 531.829 3H551.684C551.768 13.6177 560.814 22.2002 571.959 22.2002C583.104 22.2001 592.147 13.6176 592.231 3H620V27.8057Z" fill="white"/>
</g>
<defs>
<filter id="filter0_dd_841_4590" x="0" y="0" width="626" height="402" filterUnits="userSpaceOnUse" color-interpolation-filters="sRGB">
<feFlood flood-opacity="0" result="BackgroundImageFix"/>
<feColorMatrix in="SourceAlpha" type="matrix" values="0 0 0 0 0 0 0 0 0 0 0 0 0 0 0 0 0 0 127 0" result="hardAlpha"/>
<feOffset/>
<feGaussianBlur stdDeviation="0.5"/>
<feColorMatrix type="matrix" values="0 0 0 0 0.129412 0 0 0 0 0.145098 0 0 0 0 0.160784 0 0 0 0.32 0"/>
<feBlend mode="normal" in2="BackgroundImageFix" result="effect1_dropShadow_841_4590"/>
<feColorMatrix in="SourceAlpha" type="matrix" values="0 0 0 0 0 0 0 0 0 0 0 0 0 0 0 0 0 0 127 0" result="hardAlpha"/>
<feOffset dy="3"/>
<feGaussianBlur stdDeviation="3"/>
<feColorMatrix type="matrix" values="0 0 0 0 0.129412 0 0 0 0 0.145098 0 0 0 0 0.160784 0 0 0 0.15 0"/>
<feBlend mode="normal" in2="effect1_dropShadow_841_4590" result="effect2_dropShadow_841_4590"/>
<feBlend mode="normal" in="SourceGraphic" in2="effect2_dropShadow_841_4590" result="shape"/>
</filter>
</defs>
</svg>
