<svg width="75" height="72" viewBox="0 0 75 72" fill="none" xmlns="http://www.w3.org/2000/svg">
<path d="M8.60548 44.3645C8.54964 44.3786 8.39695 44.5201 7.53418 46.0409C6.75891 47.4075 5.4453 50.0624 4.66513 51.5226C3.88496 52.9827 3.71556 53.1883 3.5263 53.3658C3.33703 53.5433 3.13303 53.6865 2.92285 53.834" stroke="#313131" stroke-width="1.94255" stroke-linecap="round"/>
<path d="M62.6514 43.8475C62.644 43.8359 62.8755 43.9418 63.567 44.4201C64.0233 44.7865 64.6936 45.404 66.1615 47.0044C67.6294 48.6049 69.8745 51.1697 72.1876 53.8121" stroke="#313131" stroke-width="1.94255" stroke-linecap="round"/>
<path d="M24.6845 51.9261C24.6674 51.92 24.6502 51.914 24.6006 54.1626C24.5511 56.4113 21.2535 56.2102 21.1464 58.5287C21.0392 60.8471 24.1251 65.5487 23.6781 65.4225C21.4757 64.8005 20.6926 64.7052 20.0863 64.7586C19.8583 64.7788 19.8164 64.9291 19.9034 65.0464C20.6156 65.441 21.3907 65.5401 22.07 65.5138C22.3231 65.4709 22.3902 65.3681 22.4861 65.1985" stroke="#313131" stroke-width="1.94255" stroke-linecap="round"/>
<path d="M45.3525 53.3965C45.3489 53.3909 45.3452 53.3854 45.5382 54.7991C45.7312 56.2128 41.7005 58.7086 42.0114 60.8474C42.3223 62.9863 47.7892 66.5047 47.9359 67.2988C48.1765 68.6015 47.5313 67.1074 47.5164 67.2988C47.477 67.8071 45.9252 67.3541 44.8329 67.6201C44.627 67.6703 44.5481 67.8095 44.4884 67.9292C44.4288 68.0489 44.405 68.1858 44.4448 68.3111C44.5282 68.5735 44.9028 68.709 45.2979 68.7826C45.915 68.8975 46.4994 68.5399 47.0073 68.1899C47.1089 68.0978 47.1966 68.0013 47.2572 67.899C47.3177 67.7966 47.3484 67.6914 47.3995 67.554" stroke="#313131" stroke-width="1.94255" stroke-linecap="round"/>
<g filter="url(#filter0_d_858_5780)">
<path d="M64.2138 47.6188C63.2184 55.726 55.8392 61.4913 47.732 60.4958L20.5921 57.1635C12.4849 56.168 6.71962 48.7889 7.71506 40.6816C8.71051 32.5744 16.0897 26.8092 24.1969 27.8046L51.3368 31.137C59.444 32.1324 65.2093 39.5116 64.2138 47.6188Z" fill="#EB7128"/>
<path d="M67.3995 21.6738C66.404 29.781 65.0398 43.4341 56.9325 42.4386L16.5455 37.2527C8.43827 36.2573 9.90527 22.8438 10.9007 14.7366C11.7015 8.21484 16.6333 3.20863 22.7519 2.01817C25.7772 1.42956 28.8058 2.52142 31.6005 3.82106C37.0437 6.35245 43.1303 7.16101 49.0458 6.13854L49.8521 5.99916C52.9489 5.46389 56.2168 5.15781 59.0568 6.50352C64.6596 9.1584 68.1965 15.1827 67.3995 21.6738Z" fill="#EB7128"/>
<rect x="22.873" y="21.6379" width="11.4336" height="15.3586" rx="5.71682" transform="rotate(7 22.873 21.6379)" fill="white"/>
<rect x="24.0527" y="27.3611" width="6.60612" height="9.02836" rx="3.30306" transform="rotate(7 24.0527 27.3611)" fill="#3D3D3D"/>
<rect x="41.6758" y="23.9463" width="11.4336" height="15.3586" rx="5.71682" transform="rotate(7 41.6758 23.9463)" fill="white"/>
<path d="M32.7801 41.7773C34.4375 43.5356 38.3026 45.7377 40.5044 40.48" stroke="#3D3D3D" stroke-width="1.70651" stroke-linecap="round"/>
<rect x="42.5039" y="29.5266" width="6.60612" height="9.02836" rx="3.30306" transform="rotate(7 42.5039 29.5266)" fill="#3D3D3D"/>
</g>
<defs>
<filter id="filter0_d_858_5780" x="3.89429" y="-0.000118494" width="67.3266" height="66.1716" filterUnits="userSpaceOnUse" color-interpolation-filters="sRGB">
<feFlood flood-opacity="0" result="BackgroundImageFix"/>
<feColorMatrix in="SourceAlpha" type="matrix" values="0 0 0 0 0 0 0 0 0 0 0 0 0 0 0 0 0 0 127 0" result="hardAlpha"/>
<feOffset dy="1.85461"/>
<feGaussianBlur stdDeviation="1.85461"/>
<feComposite in2="hardAlpha" operator="out"/>
<feColorMatrix type="matrix" values="0 0 0 0 0.74902 0 0 0 0 0.737255 0 0 0 0 0.658824 0 0 0 0.4 0"/>
<feBlend mode="normal" in2="BackgroundImageFix" result="effect1_dropShadow_858_5780"/>
<feBlend mode="normal" in="SourceGraphic" in2="effect1_dropShadow_858_5780" result="shape"/>
</filter>
</defs>
</svg>
