<svg width="183" height="86" viewBox="0 0 183 86" fill="none" xmlns="http://www.w3.org/2000/svg">
<g filter="url(#filter0_dd_986_4957)">
<path d="M166.039 59.0989C171.479 59.0989 175.889 62.564 175.889 66.8381C175.888 71.1122 171.479 74.5764 166.039 74.5764C160.599 74.5764 156.19 71.1122 156.189 66.8381C156.189 62.564 160.599 59.0989 166.039 59.0989ZM129.454 3.51782C134.564 3.51782 139.002 5.55648 141.252 8.55005C142.737 7.58873 144.478 7.03549 146.339 7.0354C151.779 7.0354 156.189 11.7607 156.189 17.5891C156.189 20.5941 155.014 23.3029 153.133 25.2249C156.962 26.6716 159.707 30.5803 159.707 35.178C159.707 39.2616 157.54 42.8004 154.373 44.5549C155.515 46.2777 156.188 48.3818 156.188 50.6555C156.188 56.4839 151.779 61.2092 146.339 61.2092C144.323 61.2092 142.45 60.5586 140.89 59.4456C138.546 62.1896 134.302 64.0237 129.454 64.0237C124.726 64.0237 120.573 62.2772 118.196 59.6448C115.82 62.2769 111.668 64.0237 106.939 64.0237C102.212 64.0236 98.0602 62.2767 95.6836 59.6448C93.307 62.2768 89.1556 64.0236 84.4277 64.0237C79.6987 64.0237 75.5453 62.2768 73.1689 59.6438C70.7925 62.2763 66.6406 64.0236 61.9121 64.0237C57.184 64.0237 53.0318 62.2769 50.6553 59.6448C48.2787 62.2769 44.1265 64.0237 39.3984 64.0237C34.084 64.0236 29.4945 61.8195 27.3398 58.6282C27.2141 58.5948 27.0892 58.5594 26.9648 58.5227C25.2227 60.1921 22.9245 61.2091 20.4033 61.2092C14.9635 61.2092 10.5527 56.4839 10.5527 50.6555C10.5528 48.3819 11.2266 46.2777 12.3682 44.5549C9.20143 42.8002 7.03523 39.2613 7.03516 35.178C7.03516 30.5807 9.77977 26.6718 13.6084 25.2249C11.7276 23.3029 10.5537 20.5937 10.5537 17.5891C10.5537 11.7607 14.9635 7.03542 20.4033 7.0354C22.8903 7.0354 25.1601 8.02545 26.8936 9.65454C28.8041 6.06828 33.6818 3.51796 39.3984 3.51782C44.1261 3.51782 48.2786 5.26399 50.6553 7.89575C53.0319 5.26388 57.1843 3.51783 61.9121 3.51782C66.6399 3.51782 70.7923 5.26389 73.1689 7.89575C75.5455 5.26364 79.6987 3.51782 84.4268 3.51782C89.1543 3.51787 93.306 5.26411 95.6826 7.89575C98.0592 5.26385 102.212 3.51791 106.939 3.51782C111.668 3.51782 115.821 5.26438 118.197 7.89673C120.574 5.26453 124.726 3.51785 129.454 3.51782Z" fill="white"/>
</g>
<path d="M33.1445 40.0693L34.02 36.7939H30.9556L31.3074 35.465H34.3796L34.9815 33.1823H31.9172L32.2768 31.8612H35.3411L36.1541 28.8203H37.53L36.7091 31.8612H39.0934L39.9064 28.8203H41.2822L40.4614 31.8612H43.5258L43.174 33.1823H40.1096L39.4921 35.465H42.5564L42.2047 36.7939H39.1403L38.2648 40.0693H36.8968L37.7645 36.7939H35.388L34.5125 40.0693H33.1445ZM35.7476 35.465H38.1241L38.7338 33.1823H36.3574L35.7476 35.465ZM47.5881 40.3038C46.8011 40.3038 46.1341 40.0902 45.5868 39.6628C45.0396 39.2355 44.6644 38.6622 44.4612 37.943L45.8448 37.6147C45.9282 37.9952 46.1288 38.3183 46.4467 38.5841C46.7699 38.8498 47.1399 38.9827 47.5568 38.9827C47.8278 38.9827 48.104 38.9176 48.3854 38.7873C48.6668 38.6518 48.8831 38.4329 49.0343 38.1307C49.1385 37.9222 49.1984 37.6929 49.2141 37.4427C49.2297 37.1874 49.2375 36.8877 49.2375 36.5438V28.8203H50.6446V36.5438C50.6446 36.8669 50.642 37.1561 50.6368 37.4115C50.6368 37.6668 50.6107 37.9118 50.5586 38.1463C50.5117 38.3756 50.4179 38.6101 50.2772 38.8498C49.9958 39.3449 49.6179 39.7123 49.1437 39.9521C48.6747 40.1866 48.1561 40.3038 47.5881 40.3038ZM56.1962 40.296C55.6542 40.296 55.1878 40.21 54.7969 40.0381C54.4113 39.8661 54.0908 39.6368 53.8354 39.3501C53.58 39.0635 53.3794 38.7456 53.2335 38.3964C53.0875 38.0473 52.9833 37.6903 52.9208 37.3255C52.8634 36.9607 52.8348 36.6193 52.8348 36.3014V31.6345H54.2419V35.8637C54.2419 36.2597 54.2784 36.6428 54.3513 37.0128C54.4243 37.3828 54.5468 37.7163 54.7187 38.0134C54.8959 38.3105 55.1304 38.545 55.4223 38.7169C55.7193 38.8889 56.0894 38.9749 56.5323 38.9749C56.8815 38.9749 57.1994 38.915 57.486 38.7951C57.7727 38.6753 58.0176 38.4981 58.2209 38.2635C58.4241 38.0238 58.5805 37.7216 58.6899 37.3567C58.7993 36.9919 58.8541 36.5672 58.8541 36.0825L59.7687 36.364C59.7687 37.1769 59.6202 37.8779 59.3231 38.4668C59.0313 39.0557 58.6169 39.5091 58.0802 39.827C57.5486 40.1397 56.9206 40.296 56.1962 40.296ZM59.0104 40.0771V37.818H58.8541V31.6345H60.2533V40.0771H59.0104ZM65.6315 40.3038C64.6257 40.3038 63.7997 40.085 63.1534 39.6472C62.5124 39.2042 62.1189 38.5867 61.973 37.7945L63.3958 37.5678C63.5104 38.0264 63.7736 38.3912 64.1853 38.6622C64.597 38.928 65.1077 39.0609 65.7175 39.0609C66.296 39.0609 66.7494 38.941 67.0777 38.7013C67.406 38.4616 67.5702 38.1359 67.5702 37.7242C67.5702 37.4844 67.5155 37.2916 67.406 37.1457C67.2966 36.9945 67.0699 36.8538 66.7259 36.7235C66.3872 36.5933 65.8738 36.4369 65.1859 36.2545C64.4407 36.0565 63.8544 35.8506 63.427 35.637C62.9997 35.4233 62.6948 35.1757 62.5124 34.8943C62.33 34.6129 62.2388 34.2715 62.2388 33.8703C62.2388 33.3752 62.3743 32.9426 62.6453 32.5726C62.9163 32.1974 63.2941 31.9081 63.7788 31.7049C64.2687 31.5016 64.8367 31.4 65.483 31.4C66.124 31.4 66.6972 31.5016 67.2028 31.7049C67.7083 31.9081 68.1148 32.1974 68.4223 32.5726C68.7349 32.9426 68.92 33.3752 68.9773 33.8703L67.5545 34.1282C67.4868 33.6748 67.2679 33.3178 66.8979 33.0573C66.5331 32.7967 66.0614 32.6586 65.483 32.6429C64.9358 32.6221 64.4902 32.7185 64.1462 32.9322C63.8075 33.1459 63.6381 33.4351 63.6381 33.7999C63.6381 34.0031 63.7006 34.1777 63.8257 34.3237C63.956 34.4696 64.1931 34.6077 64.5371 34.738C64.8863 34.8683 65.3918 35.0168 66.0536 35.1836C66.7989 35.3712 67.3852 35.577 67.8125 35.8011C68.2451 36.02 68.5525 36.2806 68.7349 36.5828C68.9173 36.8799 69.0085 37.2473 69.0085 37.6851C69.0085 38.4981 68.7089 39.1391 68.1096 39.6081C67.5102 40.0719 66.6842 40.3038 65.6315 40.3038ZM75.4464 40.0771C74.9461 40.1762 74.451 40.2153 73.9611 40.1944C73.4765 40.1788 73.0439 40.0824 72.6635 39.9052C72.283 39.7228 71.9938 39.4413 71.7958 39.0609C71.629 38.7274 71.5378 38.3912 71.5222 38.0525C71.5117 37.7085 71.5065 37.3203 71.5065 36.8877V29.2893H72.898V36.8252C72.898 37.1691 72.9006 37.4636 72.9058 37.7085C72.9162 37.9535 72.971 38.1645 73.07 38.3417C73.2576 38.6753 73.5546 38.8707 73.9611 38.928C74.3728 38.9853 74.8679 38.9697 75.4464 38.8811V40.0771ZM69.7945 32.7837V31.6345H75.4464V32.7837H69.7945ZM81.0956 40.0771V31.1733C81.0956 30.9544 81.106 30.7329 81.1269 30.5088C81.1477 30.2795 81.1946 30.058 81.2676 29.8444C81.3405 29.6255 81.4604 29.4248 81.6272 29.2424C81.82 29.0288 82.0311 28.8776 82.2604 28.789C82.4897 28.6952 82.7216 28.6379 82.9561 28.6171C83.1958 28.5962 83.4225 28.5858 83.6362 28.5858H84.7072V29.7427H83.7144C83.3027 29.7427 82.9952 29.8444 82.7919 30.0476C82.5887 30.2457 82.4871 30.5479 82.4871 30.9544V40.0771H81.0956ZM79.665 32.7837V31.6345H84.7072V32.7837H79.665ZM89.2454 40.3117C88.4064 40.3117 87.682 40.1214 87.0722 39.741C86.4677 39.3606 86.0013 38.8342 85.673 38.1619C85.3446 37.4896 85.1805 36.7183 85.1805 35.848C85.1805 34.9621 85.3472 34.1855 85.6808 33.5185C86.0143 32.8514 86.486 32.3329 87.0957 31.9628C87.7054 31.5876 88.422 31.4 89.2454 31.4C90.0897 31.4 90.8167 31.5902 91.4265 31.9707C92.0362 32.3459 92.5026 32.8696 92.8257 33.5419C93.1541 34.209 93.3182 34.9777 93.3182 35.848C93.3182 36.7288 93.1541 37.5053 92.8257 38.1776C92.4974 38.8446 92.0284 39.3684 91.4186 39.7488C90.8089 40.1241 90.0845 40.3117 89.2454 40.3117ZM89.2454 38.9906C90.121 38.9906 90.7724 38.6987 91.1998 38.115C91.6271 37.5313 91.8408 36.7757 91.8408 35.848C91.8408 34.8943 91.6245 34.136 91.1919 33.5732C90.7594 33.0051 90.1106 32.7211 89.2454 32.7211C88.6565 32.7211 88.1719 32.854 87.7914 33.1198C87.411 33.3856 87.127 33.753 86.9394 34.222C86.7517 34.6911 86.6579 35.2331 86.6579 35.848C86.6579 36.7965 86.8768 37.5574 87.3146 38.1307C87.7524 38.7039 88.396 38.9906 89.2454 38.9906ZM95.0394 40.0771V31.6345H96.2823V33.6748L96.0791 33.409C96.1781 33.1485 96.3058 32.9087 96.4621 32.6898C96.6237 32.471 96.8035 32.2912 97.0015 32.1505C97.2204 31.9733 97.4679 31.8378 97.7441 31.744C98.0203 31.6502 98.3018 31.5954 98.5884 31.5798C98.875 31.559 99.1434 31.5772 99.3936 31.6345V32.94C99.1017 32.8618 98.7812 32.841 98.4321 32.8775C98.0829 32.9139 97.7598 33.0416 97.4627 33.2605C97.1917 33.4533 96.9807 33.6879 96.8295 33.9641C96.6836 34.2403 96.582 34.5399 96.5246 34.863C96.4673 35.1809 96.4387 35.5067 96.4387 35.8402V40.0771H95.0394ZM104.807 40.0771V31.1733C104.807 30.9544 104.817 30.7329 104.838 30.5088C104.859 30.2795 104.906 30.058 104.979 29.8444C105.052 29.6255 105.172 29.4248 105.338 29.2424C105.531 29.0288 105.742 28.8776 105.972 28.789C106.201 28.6952 106.433 28.6379 106.667 28.6171C106.907 28.5962 107.134 28.5858 107.348 28.5858H108.418V29.7427H107.426C107.014 29.7427 106.706 29.8444 106.503 30.0476C106.3 30.2457 106.198 30.5479 106.198 30.9544V40.0771H104.807ZM103.376 32.7837V31.6345H108.418V32.7837H103.376ZM112.871 40.296C112.329 40.296 111.863 40.21 111.472 40.0381C111.086 39.8661 110.766 39.6368 110.51 39.3501C110.255 39.0635 110.054 38.7456 109.909 38.3964C109.763 38.0473 109.658 37.6903 109.596 37.3255C109.538 36.9607 109.51 36.6193 109.51 36.3014V31.6345H110.917V35.8637C110.917 36.2597 110.953 36.6428 111.026 37.0128C111.099 37.3828 111.222 37.7163 111.394 38.0134C111.571 38.3105 111.805 38.545 112.097 38.7169C112.394 38.8889 112.764 38.9749 113.207 38.9749C113.557 38.9749 113.874 38.915 114.161 38.7951C114.448 38.6753 114.693 38.4981 114.896 38.2635C115.099 38.0238 115.256 37.7216 115.365 37.3567C115.474 36.9919 115.529 36.5672 115.529 36.0825L116.444 36.364C116.444 37.1769 116.295 37.8779 115.998 38.4668C115.706 39.0557 115.292 39.5091 114.755 39.827C114.224 40.1397 113.596 40.296 112.871 40.296ZM115.685 40.0771V37.818H115.529V31.6345H116.928V40.0771H115.685ZM125.129 40.0771V35.848C125.129 35.4467 125.092 35.0611 125.019 34.6911C124.951 34.321 124.829 33.9901 124.652 33.6983C124.48 33.4012 124.245 33.1667 123.948 32.9947C123.656 32.8227 123.286 32.7368 122.838 32.7368C122.489 32.7368 122.171 32.7967 121.884 32.9165C121.603 33.0312 121.361 33.2084 121.157 33.4481C120.954 33.6879 120.795 33.9901 120.681 34.3549C120.571 34.7145 120.516 35.1393 120.516 35.6291L119.602 35.3477C119.602 34.5295 119.748 33.8286 120.04 33.2449C120.337 32.656 120.751 32.2052 121.282 31.8925C121.819 31.5746 122.45 31.4156 123.174 31.4156C123.721 31.4156 124.188 31.5016 124.574 31.6736C124.959 31.8456 125.28 32.0749 125.535 32.3615C125.79 32.6429 125.991 32.9608 126.137 33.3152C126.283 33.6644 126.385 34.0214 126.442 34.3862C126.504 34.7458 126.536 35.0871 126.536 35.4103V40.0771H125.129ZM119.109 40.0771V31.6345H120.36V33.8937H120.516V40.0771H119.109ZM129.35 40.0771V38.6388H130.741V40.0771H129.35ZM129.35 37.2629V28.8203H130.741V37.2629H129.35Z" fill="black"/>
<defs>
<filter id="filter0_dd_986_4957" x="-0.000366688" y="6.07967e-05" width="182.925" height="85.1296" filterUnits="userSpaceOnUse" color-interpolation-filters="sRGB">
<feFlood flood-opacity="0" result="BackgroundImageFix"/>
<feColorMatrix in="SourceAlpha" type="matrix" values="0 0 0 0 0 0 0 0 0 0 0 0 0 0 0 0 0 0 127 0" result="hardAlpha"/>
<feOffset/>
<feGaussianBlur stdDeviation="0.586294"/>
<feColorMatrix type="matrix" values="0 0 0 0 0.129412 0 0 0 0 0.145098 0 0 0 0 0.160784 0 0 0 0.32 0"/>
<feBlend mode="normal" in2="BackgroundImageFix" result="effect1_dropShadow_986_4957"/>
<feColorMatrix in="SourceAlpha" type="matrix" values="0 0 0 0 0 0 0 0 0 0 0 0 0 0 0 0 0 0 127 0" result="hardAlpha"/>
<feOffset dy="3.51776"/>
<feGaussianBlur stdDeviation="3.51776"/>
<feColorMatrix type="matrix" values="0 0 0 0 0.129412 0 0 0 0 0.145098 0 0 0 0 0.160784 0 0 0 0.15 0"/>
<feBlend mode="normal" in2="effect1_dropShadow_986_4957" result="effect2_dropShadow_986_4957"/>
<feBlend mode="normal" in="SourceGraphic" in2="effect2_dropShadow_986_4957" result="shape"/>
</filter>
</defs>
</svg>
