<svg width="160" height="58" viewBox="0 0 160 58" fill="none" xmlns="http://www.w3.org/2000/svg">
<g filter="url(#filter0_dd_986_4979)">
<rect x="6.94629" y="3.47314" width="145.458" height="43.2288" rx="13.893" fill="white"/>
<path d="M32.2621 30.5799L33.1266 27.346H30.101L30.4483 26.0338H33.4816L34.0759 23.7801H31.0504L31.4054 22.4757H34.431L35.2337 19.4733H36.5921L35.7817 22.4757H38.1358L38.9385 19.4733H40.2969L39.4865 22.4757H42.5121L42.1647 23.7801H39.1392L38.5294 26.0338H41.555L41.2077 27.346H38.1821L37.3176 30.5799H35.9669L36.8237 27.346H34.4773L33.6128 30.5799H32.2621ZM34.8323 26.0338H37.1787L37.7807 23.7801H35.4344L34.8323 26.0338ZM49.0854 30.8192C47.9791 30.8192 47.0401 30.5748 46.2682 30.086C45.4964 29.5971 44.9072 28.9179 44.5007 28.0483C44.0994 27.1787 43.8987 26.1728 43.8987 25.0305C43.8987 23.8881 44.0994 22.8822 44.5007 22.0126C44.9072 21.143 45.4964 20.4638 46.2682 19.975C47.0401 19.4861 47.9791 19.2417 49.0854 19.2417C50.3718 19.2417 51.4292 19.5685 52.2577 20.2219C53.0912 20.8754 53.665 21.7553 53.9788 22.8616L52.5818 23.2321C52.3554 22.4037 51.9515 21.7502 51.37 21.2716C50.7886 20.7931 50.0271 20.5538 49.0854 20.5538C48.257 20.5538 47.5675 20.7416 47.0169 21.1173C46.4663 21.4929 46.0521 22.0177 45.7743 22.6918C45.4964 23.3607 45.3549 24.1403 45.3498 25.0305C45.3446 25.9155 45.481 26.695 45.7588 27.3691C46.0367 28.038 46.4535 28.5629 47.0092 28.9436C47.5649 29.3193 48.257 29.5071 49.0854 29.5071C50.0271 29.5071 50.7886 29.2678 51.37 28.7893C51.9515 28.3056 52.3554 27.6521 52.5818 26.8288L53.9788 27.1993C53.665 28.3005 53.0912 29.1803 52.2577 29.839C51.4292 30.4925 50.3718 30.8192 49.0854 30.8192ZM55.8259 30.5876V19.2417H57.1998V30.5876H55.8259ZM62.6802 30.8038C62.145 30.8038 61.6845 30.7189 61.2986 30.5491C60.9178 30.3793 60.6014 30.1528 60.3492 29.8698C60.0971 29.5868 59.899 29.273 59.7549 28.9282C59.6108 28.5835 59.5079 28.231 59.4462 27.8708C59.3896 27.5106 59.3613 27.1736 59.3613 26.8597V22.2519H60.7506V26.4275C60.7506 26.8185 60.7866 27.1967 60.8586 27.5621C60.9307 27.9274 61.0516 28.2567 61.2214 28.55C61.3963 28.8433 61.6279 29.0749 61.916 29.2447C62.2093 29.4145 62.5747 29.4994 63.0121 29.4994C63.3568 29.4994 63.6707 29.4402 63.9537 29.3218C64.2367 29.2035 64.4785 29.0285 64.6792 28.797C64.8799 28.5603 65.0343 28.2619 65.1423 27.9017C65.2504 27.5415 65.3044 27.1221 65.3044 26.6436L66.2074 26.9214C66.2074 27.7241 66.0608 28.4162 65.7675 28.9977C65.4793 29.5791 65.0703 30.0268 64.5403 30.3407C64.0154 30.6494 63.3954 30.8038 62.6802 30.8038ZM65.4588 30.5876V28.3571H65.3044V22.2519H66.686V30.5876H65.4588ZM72.6753 30.8192C71.8931 30.8192 71.2345 30.6262 70.6994 30.2403C70.1642 29.8493 69.7577 29.3218 69.4799 28.6581C69.2072 27.9891 69.0708 27.2405 69.0708 26.412C69.0708 25.5733 69.2072 24.8221 69.4799 24.1583C69.7577 23.4945 70.1642 22.9722 70.6994 22.5915C71.2397 22.2107 71.9009 22.0203 72.683 22.0203C73.4548 22.0203 74.1186 22.2133 74.6743 22.5992C75.2352 22.98 75.6648 23.5022 75.9633 24.166C76.2617 24.8298 76.4109 25.5785 76.4109 26.412C76.4109 27.2456 76.2617 27.9943 75.9633 28.6581C75.6648 29.3218 75.2352 29.8493 74.6743 30.2403C74.1186 30.6262 73.4522 30.8192 72.6753 30.8192ZM68.8393 30.5876V19.4733H70.2208V24.4516H70.0665V30.5876H68.8393ZM72.5055 29.5611C73.056 29.5611 73.5114 29.4222 73.8716 29.1443C74.2318 28.8665 74.5019 28.4908 74.682 28.0174C74.8621 27.5389 74.9522 27.0038 74.9522 26.412C74.9522 25.8254 74.8621 25.2954 74.682 24.8221C74.5071 24.3487 74.2344 23.973 73.8639 23.6952C73.4986 23.4173 73.0329 23.2784 72.4669 23.2784C71.9266 23.2784 71.4789 23.4122 71.1239 23.6797C70.7688 23.9422 70.5039 24.3101 70.3289 24.7835C70.154 25.2517 70.0665 25.7946 70.0665 26.412C70.0665 27.0192 70.1514 27.5621 70.3212 28.0406C70.4961 28.514 70.7637 28.887 71.1239 29.1598C71.4841 29.4273 71.9446 29.5611 72.5055 29.5611ZM84.8055 30.8192C83.9873 30.8192 83.2721 30.6391 82.6598 30.2789C82.0526 29.9136 81.5792 29.4067 81.2396 28.7584C80.9 28.1049 80.7302 27.3434 80.7302 26.4738C80.7302 25.563 80.8974 24.7757 81.2319 24.112C81.5663 23.4431 82.032 22.9285 82.6289 22.5683C83.2309 22.203 83.9359 22.0203 84.7437 22.0203C85.5824 22.0203 86.2951 22.2133 86.8817 22.5992C87.4734 22.9851 87.9159 23.5357 88.2092 24.2509C88.5077 24.9661 88.6363 25.8177 88.5952 26.8057H87.2059V26.3117C87.1904 25.2877 86.982 24.5236 86.5807 24.0194C86.1793 23.5099 85.5824 23.2552 84.79 23.2552C83.941 23.2552 83.2952 23.528 82.8527 24.0734C82.4102 24.6188 82.1889 25.4009 82.1889 26.4198C82.1889 27.4026 82.4102 28.1641 82.8527 28.7044C83.2952 29.2447 83.9256 29.5148 84.7437 29.5148C85.2943 29.5148 85.7728 29.3887 86.1793 29.1366C86.5858 28.8845 86.9048 28.5217 87.1364 28.0483L88.4562 28.5037C88.1321 29.2395 87.6432 29.8107 86.9897 30.2172C86.3414 30.6185 85.6133 30.8192 84.8055 30.8192ZM81.7258 26.8057V25.7019H87.8851V26.8057H81.7258ZM92.2658 30.5876L89.2402 22.2519H90.6295L92.9682 28.8356L95.2991 22.2519H96.6961L93.6706 30.5876H92.2658ZM101.403 30.8192C100.585 30.8192 99.8695 30.6391 99.2572 30.2789C98.65 29.9136 98.1766 29.4067 97.837 28.7584C97.4974 28.1049 97.3276 27.3434 97.3276 26.4738C97.3276 25.563 97.4948 24.7757 97.8293 24.112C98.1637 23.4431 98.6294 22.9285 99.2263 22.5683C99.8283 22.203 100.533 22.0203 101.341 22.0203C102.18 22.0203 102.893 22.2133 103.479 22.5992C104.071 22.9851 104.513 23.5357 104.807 24.2509C105.105 24.9661 105.234 25.8177 105.193 26.8057H103.803V26.3117C103.788 25.2877 103.579 24.5236 103.178 24.0194C102.777 23.5099 102.18 23.2552 101.387 23.2552C100.538 23.2552 99.8927 23.528 99.4501 24.0734C99.0076 24.6188 98.7864 25.4009 98.7864 26.4198C98.7864 27.4026 99.0076 28.1641 99.4501 28.7044C99.8927 29.2447 100.523 29.5148 101.341 29.5148C101.892 29.5148 102.37 29.3887 102.777 29.1366C103.183 28.8845 103.502 28.5217 103.734 28.0483L105.054 28.5037C104.729 29.2395 104.241 29.8107 103.587 30.2172C102.939 30.6185 102.211 30.8192 101.403 30.8192ZM98.3233 26.8057V25.7019H104.482V26.8057H98.3233ZM112.62 30.5876V26.412C112.62 26.0158 112.584 25.6351 112.512 25.2697C112.445 24.9044 112.324 24.5776 112.149 24.2895C111.98 23.9962 111.748 23.7646 111.455 23.5948C111.167 23.425 110.801 23.3401 110.359 23.3401C110.014 23.3401 109.7 23.3993 109.417 23.5177C109.139 23.6309 108.9 23.8058 108.699 24.0425C108.499 24.2792 108.342 24.5776 108.229 24.9378C108.12 25.2929 108.066 25.7122 108.066 26.1959L107.163 25.9181C107.163 25.1102 107.307 24.4181 107.596 23.8418C107.889 23.2604 108.298 22.8153 108.823 22.5066C109.353 22.1927 109.975 22.0357 110.691 22.0357C111.231 22.0357 111.691 22.1206 112.072 22.2904C112.453 22.4603 112.769 22.6867 113.022 22.9697C113.274 23.2475 113.472 23.5614 113.616 23.9113C113.76 24.256 113.86 24.6085 113.917 24.9687C113.979 25.3238 114.01 25.6608 114.01 25.9798V30.5876H112.62ZM106.677 30.5876V22.2519H107.912V24.4825H108.066V30.5876H106.677ZM120.67 30.5876C120.176 30.6854 119.688 30.724 119.204 30.7034C118.725 30.688 118.298 30.5928 117.923 30.4178C117.547 30.2377 117.261 29.9599 117.066 29.5843C116.901 29.2549 116.811 28.9231 116.796 28.5886C116.785 28.249 116.78 27.8657 116.78 27.4386V19.9364H118.154V27.3768C118.154 27.7164 118.157 28.0072 118.162 28.249C118.172 28.4908 118.226 28.6992 118.324 28.8742C118.509 29.2035 118.803 29.3965 119.204 29.4531C119.61 29.5097 120.099 29.4942 120.67 29.4067V30.5876ZM115.09 23.3865V22.2519H120.67V23.3865H115.09ZM125.512 30.8115C124.519 30.8115 123.703 30.5954 123.065 30.1631C122.432 29.7258 122.044 29.116 121.9 28.3339L123.304 28.1101C123.418 28.5629 123.677 28.9231 124.084 29.1906C124.49 29.4531 124.995 29.5843 125.597 29.5843C126.168 29.5843 126.615 29.4659 126.94 29.2292C127.264 28.9925 127.426 28.6709 127.426 28.2644C127.426 28.0277 127.372 27.8374 127.264 27.6933C127.156 27.5441 126.932 27.4051 126.592 27.2765C126.258 27.1478 125.751 26.9935 125.072 26.8134C124.336 26.6179 123.757 26.4146 123.335 26.2036C122.913 25.9927 122.612 25.7483 122.432 25.4704C122.252 25.1925 122.162 24.8555 122.162 24.4593C122.162 23.9705 122.296 23.5434 122.563 23.1781C122.831 22.8076 123.204 22.522 123.683 22.3213C124.166 22.1206 124.727 22.0203 125.365 22.0203C125.998 22.0203 126.564 22.1206 127.063 22.3213C127.562 22.522 127.964 22.8076 128.267 23.1781C128.576 23.5434 128.759 23.9705 128.815 24.4593L127.41 24.714C127.344 24.2663 127.127 23.9139 126.762 23.6566C126.402 23.3993 125.936 23.263 125.365 23.2475C124.825 23.2269 124.385 23.3221 124.045 23.5331C123.711 23.7441 123.544 24.0296 123.544 24.3898C123.544 24.5905 123.605 24.7629 123.729 24.907C123.857 25.051 124.092 25.1874 124.431 25.316C124.776 25.4447 125.275 25.5913 125.929 25.756C126.664 25.9412 127.243 26.1445 127.665 26.3657C128.092 26.5818 128.396 26.8391 128.576 27.1376C128.756 27.4309 128.846 27.7936 128.846 28.2258C128.846 29.0285 128.55 29.6614 127.958 30.1245C127.367 30.5825 126.551 30.8115 125.512 30.8115Z" fill="black"/>
</g>
<defs>
<filter id="filter0_dd_986_4979" x="-0.000201225" y="-0.000100613" width="159.351" height="57.1217" filterUnits="userSpaceOnUse" color-interpolation-filters="sRGB">
<feFlood flood-opacity="0" result="BackgroundImageFix"/>
<feColorMatrix in="SourceAlpha" type="matrix" values="0 0 0 0 0 0 0 0 0 0 0 0 0 0 0 0 0 0 127 0" result="hardAlpha"/>
<feOffset/>
<feGaussianBlur stdDeviation="0.578874"/>
<feColorMatrix type="matrix" values="0 0 0 0 0.129412 0 0 0 0 0.145098 0 0 0 0 0.160784 0 0 0 0.32 0"/>
<feBlend mode="normal" in2="BackgroundImageFix" result="effect1_dropShadow_986_4979"/>
<feColorMatrix in="SourceAlpha" type="matrix" values="0 0 0 0 0 0 0 0 0 0 0 0 0 0 0 0 0 0 127 0" result="hardAlpha"/>
<feOffset dy="3.47325"/>
<feGaussianBlur stdDeviation="3.47325"/>
<feColorMatrix type="matrix" values="0 0 0 0 0.129412 0 0 0 0 0.145098 0 0 0 0 0.160784 0 0 0 0.15 0"/>
<feBlend mode="normal" in2="effect1_dropShadow_986_4979" result="effect2_dropShadow_986_4979"/>
<feBlend mode="normal" in="SourceGraphic" in2="effect2_dropShadow_986_4979" result="shape"/>
</filter>
</defs>
</svg>
