<svg width="1050" height="278" overflow="visible" style="display: block;" viewBox="0 0 1050 278" fill="none" xmlns="http://www.w3.org/2000/svg">
<g id="Subtract" filter="url(#filter0_dd_0_416)">
<path d="M1044 27.8086C1043.81 27.8032 1043.63 27.7998 1043.44 27.7998C1032.24 27.7999 1023.17 37.4986 1023.17 48.1504C1023.17 58.8021 1032.24 67.4374 1043.44 67.4375C1043.63 67.4375 1043.81 67.4335 1044 67.4287V90.0703C1043.81 90.0655 1043.63 90.0635 1043.44 90.0635C1032.24 90.0636 1023.17 98.6988 1023.17 109.351C1023.17 120.002 1032.24 128.637 1043.44 128.637C1043.63 128.637 1043.81 128.634 1044 128.629V151.271C1043.81 151.266 1043.63 151.263 1043.44 151.263C1032.24 151.263 1023.17 159.898 1023.17 170.55C1023.17 181.202 1032.24 189.837 1043.44 189.837C1043.63 189.837 1043.81 189.834 1044 189.829V212.471C1043.81 212.466 1043.63 212.463 1043.44 212.463C1032.24 212.463 1023.17 221.098 1023.17 231.75C1023.17 242.402 1032.24 251.037 1043.44 251.037C1043.63 251.037 1043.81 251.033 1044 251.028V269H1021.46C1021.46 268.95 1021.46 268.9 1021.46 268.85C1021.46 258.163 1012.38 249.5 1001.18 249.5C989.986 249.5 980.908 258.163 980.908 268.85C980.908 268.9 980.91 268.95 980.91 269H957.085C957.085 268.95 957.087 268.9 957.087 268.85C957.087 258.163 948.009 249.5 936.812 249.5C925.614 249.5 916.537 258.163 916.537 268.85C916.537 268.9 916.539 268.95 916.539 269H892.713C892.713 268.95 892.715 268.9 892.715 268.85C892.715 258.163 883.638 249.5 872.44 249.5C861.243 249.5 852.166 258.163 852.166 268.85C852.166 268.9 852.168 268.95 852.168 269H828.342C828.342 268.95 828.344 268.9 828.344 268.85C828.344 258.163 819.267 249.5 808.069 249.5C796.872 249.5 787.795 258.163 787.795 268.85C787.795 268.9 787.796 268.95 787.797 269H763.971C763.971 268.95 763.973 268.9 763.973 268.85C763.972 258.163 754.895 249.5 743.698 249.5C732.501 249.5 723.424 258.163 723.424 268.85C723.424 268.9 723.425 268.95 723.426 269H699.6C699.6 268.95 699.602 268.9 699.602 268.85C699.601 258.163 690.524 249.5 679.327 249.5C668.13 249.5 659.053 258.163 659.053 268.85C659.053 268.9 659.054 268.95 659.055 269H635.229C635.229 268.95 635.23 268.9 635.23 268.85C635.23 258.163 626.153 249.5 614.956 249.5C603.759 249.5 594.682 258.163 594.682 268.85C594.682 268.9 594.683 268.95 594.684 269H576.232C576.233 268.95 576.234 268.9 576.234 268.85C576.234 258.163 567.156 249.5 555.959 249.5C544.762 249.5 535.683 258.163 535.683 268.85C535.683 268.9 535.684 268.95 535.685 269H515.83C515.83 268.95 515.832 268.9 515.832 268.85C515.832 258.163 506.754 249.5 495.557 249.5C484.359 249.5 475.28 258.163 475.279 268.85C475.279 268.9 475.281 268.95 475.281 269H451.456C451.456 268.95 451.458 268.9 451.458 268.85C451.458 258.163 442.38 249.5 431.183 249.5C419.986 249.5 410.908 258.163 410.908 268.85C410.908 268.9 410.91 268.95 410.91 269H387.084C387.084 268.95 387.086 268.9 387.086 268.85C387.086 258.163 378.009 249.5 366.812 249.5C355.614 249.5 346.537 258.163 346.537 268.85C346.537 268.9 346.539 268.95 346.539 269H322.713C322.713 268.95 322.715 268.9 322.715 268.85C322.715 258.163 313.638 249.5 302.44 249.5C291.243 249.5 282.166 258.163 282.166 268.85C282.166 268.9 282.168 268.95 282.168 269H258.342C258.342 268.95 258.344 268.9 258.344 268.85C258.344 258.163 249.267 249.5 238.069 249.5C226.872 249.5 217.795 258.163 217.795 268.85C217.795 268.9 217.796 268.95 217.797 269H193.971C193.971 268.95 193.973 268.9 193.973 268.85C193.972 258.163 184.895 249.5 173.698 249.5C162.501 249.5 153.424 258.163 153.424 268.85C153.424 268.9 153.425 268.95 153.426 269H129.6C129.6 268.95 129.602 268.9 129.602 268.85C129.601 258.163 120.524 249.5 109.327 249.5C98.13 249.5 89.053 258.163 89.0527 268.85C89.0527 268.9 89.0543 268.95 89.0547 269H65.2285C65.2289 268.95 65.2305 268.9 65.2305 268.85C65.2302 258.163 56.1532 249.5 44.9561 249.5C33.7589 249.5 24.6819 258.163 24.6816 268.85C24.6816 268.9 24.6832 268.95 24.6836 269H6V247.07C16.8143 246.657 25.4482 238.161 25.4482 227.738C25.4482 217.316 16.8143 208.819 6 208.405V185.67C16.8141 185.256 25.448 176.761 25.4482 166.339C25.4482 155.916 16.8143 147.419 6 147.006V124.271C16.8143 123.857 25.4482 115.361 25.4482 104.938C25.4482 94.5158 16.8143 86.0191 6 85.6055V62.8701C16.8143 62.4565 25.4482 53.9607 25.4482 43.5381C25.448 33.1156 16.8142 24.6187 6 24.2051V3H24.6836C24.7745 13.6123 33.8152 22.1885 44.9561 22.1885C56.0968 22.1884 65.1376 13.6123 65.2285 3H89.0547C89.1456 13.6123 98.1863 22.1885 109.327 22.1885C120.468 22.1884 129.509 13.6123 129.6 3H153.426C153.517 13.6123 162.557 22.1884 173.698 22.1885C184.839 22.1885 193.88 13.6123 193.971 3H217.797C217.888 13.6123 226.928 22.1884 238.069 22.1885C249.21 22.1885 258.251 13.6123 258.342 3H282.168C282.259 13.6123 291.3 22.1884 302.44 22.1885C313.581 22.1885 322.622 13.6123 322.713 3H346.539C346.63 13.6122 355.671 22.1883 366.812 22.1885C377.952 22.1885 386.993 13.6123 387.084 3H410.91C411.001 13.6122 420.042 22.1883 431.183 22.1885C442.323 22.1885 451.365 13.6123 451.456 3H475.281C475.372 13.6123 484.416 22.1885 495.557 22.1885C506.697 22.1884 515.739 13.6123 515.83 3H535.685C535.776 13.6123 544.818 22.1884 555.959 22.1885C567.1 22.1885 576.141 13.6123 576.232 3H594.684C594.775 13.6123 603.815 22.1885 614.956 22.1885C626.097 22.1884 635.138 13.6123 635.229 3H659.055C659.146 13.6123 668.186 22.1885 679.327 22.1885C690.468 22.1884 699.509 13.6123 699.6 3H723.426C723.517 13.6123 732.557 22.1884 743.698 22.1885C754.839 22.1885 763.88 13.6123 763.971 3H787.797C787.888 13.6123 796.928 22.1884 808.069 22.1885C819.21 22.1885 828.251 13.6123 828.342 3H852.168C852.259 13.6123 861.3 22.1884 872.44 22.1885C883.581 22.1885 892.622 13.6123 892.713 3H916.539C916.63 13.6122 925.671 22.1883 936.812 22.1885C947.952 22.1885 956.994 13.6123 957.085 3H980.91C981.001 13.6123 990.043 22.1885 1001.18 22.1885C1012.32 22.1882 1021.37 13.6122 1021.46 3H1044V27.8086Z" fill="var(--fill-0, white)"/>
</g>
<defs>
<filter id="filter0_dd_0_416" x="0" y="0" width="1050" height="278" filterUnits="userSpaceOnUse" color-interpolation-filters="sRGB">
<feFlood flood-opacity="0" result="BackgroundImageFix"/>
<feColorMatrix in="SourceAlpha" type="matrix" values="0 0 0 0 0 0 0 0 0 0 0 0 0 0 0 0 0 0 127 0" result="hardAlpha"/>
<feOffset/>
<feGaussianBlur stdDeviation="0.5"/>
<feColorMatrix type="matrix" values="0 0 0 0 0.129412 0 0 0 0 0.145098 0 0 0 0 0.160784 0 0 0 0.32 0"/>
<feBlend mode="normal" in2="BackgroundImageFix" result="effect1_dropShadow_0_416"/>
<feColorMatrix in="SourceAlpha" type="matrix" values="0 0 0 0 0 0 0 0 0 0 0 0 0 0 0 0 0 0 127 0" result="hardAlpha"/>
<feOffset dy="3"/>
<feGaussianBlur stdDeviation="3"/>
<feColorMatrix type="matrix" values="0 0 0 0 0.129412 0 0 0 0 0.145098 0 0 0 0 0.160784 0 0 0 0.15 0"/>
<feBlend mode="normal" in2="effect1_dropShadow_0_416" result="effect2_dropShadow_0_416"/>
<feBlend mode="normal" in="SourceGraphic" in2="effect2_dropShadow_0_416" result="shape"/>
</filter>
</defs>
</svg>
